<svg id="floor_1NP" xmlns="http://www.w3.org/2000/svg" viewBox="0 0 1330 985.5">
  <title>floor_1NP</title>
  <g id="units">
    <g id="unit_S11">
      <rect id="fill" x="306.09" y="769.68" width="23.26" height="39.19" rx="2.47" style="fill: #f4f4f4"/>
      <path id="outline" d="M326.88,809.37H308.56a3,3,0,0,1-3-3V772.15a3,3,0,0,1,3-3h18.32a3,3,0,0,1,3,3v34.26A3,3,0,0,1,326.88,809.37Zm-18.32-39.19a2,2,0,0,0-2,2v34.26a2,2,0,0,0,2,2h18.32a2,2,0,0,0,2-2V772.15a2,2,0,0,0-2-2Z"/>
    </g>
    <g id="unit_S10">
      <rect id="fill-2" data-name="fill" x="489.68" y="639.47" width="19.96" height="10.86" rx="2.83" transform="translate(1308.99 747.57) rotate(135)" style="fill: #f4f4f4"/>
      <path id="outline-2" data-name="outline" d="M496.44,655.12a3.33,3.33,0,0,1-2.35-1l-3.68-3.68a3.33,3.33,0,0,1,0-4.71l10.11-10.11a3.33,3.33,0,0,1,4.71,0l3.68,3.68a3.33,3.33,0,0,1,0,4.71L498.8,654.15A3.34,3.34,0,0,1,496.44,655.12Zm-5.32-8.66a2.35,2.35,0,0,0,0,3.31l3.67,3.67a2.41,2.41,0,0,0,3.31,0l10.1-10.11a2.34,2.34,0,0,0,0-3.3l-3.67-3.67a2.35,2.35,0,0,0-3.31,0Z"/>
    </g>
    <g id="unit_S09">
      <rect id="fill-3" data-name="fill" x="519.62" y="604.9" width="29.22" height="10.86" rx="2.83" transform="translate(1343.55 664.14) rotate(135)" style="fill: #f4f4f4"/>
      <path id="outline-3" data-name="outline" d="M527.74,623.83a3.32,3.32,0,0,1-2.36-1l-3.67-3.67a3.33,3.33,0,0,1,0-4.72l16.65-16.64a3.41,3.41,0,0,1,4.71,0l3.67,3.67a3.32,3.32,0,0,1,0,4.71L530.1,622.85A3.32,3.32,0,0,1,527.74,623.83Zm13-26a2.35,2.35,0,0,0-1.66.68l-16.65,16.65a2.34,2.34,0,0,0,0,3.3l3.68,3.68a2.39,2.39,0,0,0,3.3,0L546,605.5a2.35,2.35,0,0,0,0-3.31l-3.67-3.67A2.32,2.32,0,0,0,540.72,597.84Z"/>
    </g>
    <g id="unit_S08">
      <rect id="fill-4" data-name="fill" x="559.33" y="571.02" width="17.56" height="10.86" rx="2.83" transform="translate(1377.43 582.34) rotate(135)" style="fill: #f4f4f4"/>
      <path id="outline-4" data-name="outline" d="M565.74,585.83a3.32,3.32,0,0,1-2.36-1l-3.67-3.67a3.33,3.33,0,0,1,0-4.72l8.41-8.41a3.42,3.42,0,0,1,4.72,0l3.67,3.67a3.34,3.34,0,0,1,0,4.72l-8.41,8.41A3.32,3.32,0,0,1,565.74,585.83Zm4.74-17.75a2.31,2.31,0,0,0-1.65.68l-8.41,8.41a2.32,2.32,0,0,0,0,3.3l3.67,3.67a2.38,2.38,0,0,0,3.3,0l8.41-8.41a2.34,2.34,0,0,0,0-3.3l-3.67-3.67A2.32,2.32,0,0,0,570.48,568.08Z"/>
    </g>
    <g id="unit_S07">
      <rect id="fill-5" data-name="fill" x="630.88" y="491.71" width="10.59" height="18.71" rx="2.83" transform="translate(1137.23 -135.11) rotate(90)" style="fill: #f4f4f4"/>
      <path id="outline-5" data-name="outline" d="M642.69,506.86h-13a3.35,3.35,0,0,1-3.34-3.34v-4.91a3.35,3.35,0,0,1,3.34-3.34h13a3.34,3.34,0,0,1,3.33,3.34v4.91A3.34,3.34,0,0,1,642.69,506.86Zm-13-10.59a2.34,2.34,0,0,0-2.34,2.34v4.91a2.34,2.34,0,0,0,2.34,2.34h13a2.33,2.33,0,0,0,2.33-2.34v-4.91a2.33,2.33,0,0,0-2.33-2.34Z"/>
    </g>
    <g id="unit_S06">
      <rect id="fill-6" data-name="fill" x="674.89" y="451.1" width="29.55" height="11.1" rx="2.83" transform="translate(1500.24 291.89) rotate(135)" style="fill: #f4f4f4"/>
      <path id="outline-6" data-name="outline" d="M683.15,470.35a3.31,3.31,0,0,1-2.36-1L677,465.54a3.33,3.33,0,0,1,0-4.72l16.88-16.89a3.42,3.42,0,0,1,4.72,0l3.84,3.85a3.32,3.32,0,0,1,0,4.71l-16.88,16.89A3.31,3.31,0,0,1,683.15,470.35Zm13-26.39a2.32,2.32,0,0,0-1.65.68l-16.88,16.89a2.32,2.32,0,0,0,0,3.3l3.84,3.84a2.39,2.39,0,0,0,3.3,0l16.88-16.89a2.32,2.32,0,0,0,0-3.3l-3.84-3.84A2.32,2.32,0,0,0,696.19,444Z"/>
    </g>
    <g id="unit_S05">
      <rect id="fill-7" data-name="fill" x="717.71" y="412.75" width="17.21" height="11.44" rx="2.83" transform="translate(1535.8 200.78) rotate(135)" style="fill: #f4f4f4"/>
      <path id="outline-7" data-name="outline" d="M724.27,427.92a3.3,3.3,0,0,1-2.35-1l-4.08-4.07a3.33,3.33,0,0,1,0-4.72L726,410a3.42,3.42,0,0,1,4.72,0l4.08,4.08a3.33,3.33,0,0,1,0,4.71l-8.17,8.16A3.32,3.32,0,0,1,724.27,427.92ZM728.36,410a2.32,2.32,0,0,0-1.65.68l-8.16,8.17a2.32,2.32,0,0,0,0,3.3l4.07,4.08a2.41,2.41,0,0,0,3.31,0l8.16-8.17a2.34,2.34,0,0,0,0-3.3L730,410.69A2.32,2.32,0,0,0,728.36,410Z"/>
    </g>
    <g id="unit_S04">
      <rect id="fill-8" data-name="fill" x="704.5" y="556.84" width="14.62" height="37.02" rx="2.83" transform="translate(1621.97 478.88) rotate(135)" style="fill: #f4f4f4"/>
      <path id="outline-8" data-name="outline" d="M719.73,592.94a3.32,3.32,0,0,1-2.36-1L695.2,569.79a3.33,3.33,0,0,1,0-4.72l6.33-6.32a3.32,3.32,0,0,1,2.36-1h0a3.32,3.32,0,0,1,2.36,1l22.16,22.17a3.32,3.32,0,0,1,0,4.71L722.09,592A3.32,3.32,0,0,1,719.73,592.94Zm-15.84-34.17a2.31,2.31,0,0,0-1.65.68l-6.33,6.33a2.32,2.32,0,0,0,0,3.3l22.17,22.17a2.39,2.39,0,0,0,3.3,0l6.33-6.33a2.34,2.34,0,0,0,0-3.3l-22.17-22.16a2.29,2.29,0,0,0-1.65-.69Z"/>
    </g>
    <g id="unit_S03">
      <rect id="fill-9" data-name="fill" x="750.5" y="615.21" width="14.62" height="19.84" rx="2.83" transform="translate(1735.7 531.27) rotate(135)" style="fill: #f4f4f4"/>
      <path id="outline-9" data-name="outline" d="M759.66,636.64a3.32,3.32,0,0,1-2.36-1l-10-10a3.33,3.33,0,0,1,0-4.71l6.33-6.33a3.41,3.41,0,0,1,4.71,0l10,10a3.32,3.32,0,0,1,0,4.71L762,635.66A3.32,3.32,0,0,1,759.66,636.64Zm-11.67-15a2.35,2.35,0,0,0,0,3.31l10,10a2.38,2.38,0,0,0,3.3,0l6.33-6.32a2.35,2.35,0,0,0,0-3.31l-10-10a2.38,2.38,0,0,0-3.3,0Z"/>
    </g>
    <g id="unit_S02">
      <rect id="fill-10" data-name="fill" x="820.82" y="675.92" width="10.35" height="18.66" rx="2.83" transform="translate(1511.24 -140.74) rotate(90)" style="fill: #f4f4f4"/>
      <path id="outline-10" data-name="outline" d="M832.49,690.93h-13a3.34,3.34,0,0,1-3.33-3.34v-4.68a3.34,3.34,0,0,1,3.33-3.33h13a3.33,3.33,0,0,1,3.33,3.33v4.68A3.34,3.34,0,0,1,832.49,690.93Zm-13-10.35a2.34,2.34,0,0,0-2.33,2.33v4.68a2.34,2.34,0,0,0,2.33,2.34h13a2.34,2.34,0,0,0,2.33-2.34v-4.68a2.34,2.34,0,0,0-2.33-2.33Z"/>
    </g>
    <g id="unit_S01">
      <rect id="fill-11" data-name="fill" x="811.78" y="718.81" width="23.11" height="14.7" rx="2.83" transform="translate(1549.49 -97.17) rotate(90)" style="fill: #f4f4f4"/>
      <path id="outline-11" data-name="outline" d="M827.85,738.22h-9a3.35,3.35,0,0,1-3.34-3.34V717.44a3.34,3.34,0,0,1,3.34-3.33h9a3.34,3.34,0,0,1,3.33,3.33v17.44A3.34,3.34,0,0,1,827.85,738.22Zm-9-23.11a2.33,2.33,0,0,0-2.34,2.33v17.44a2.34,2.34,0,0,0,2.34,2.34h9a2.34,2.34,0,0,0,2.33-2.34V717.44a2.33,2.33,0,0,0-2.33-2.33Z"/>
    </g>
    <g id="unit_134">
      <path id="fill-12" data-name="fill" d="M743.45,707.2V663.41a2.49,2.49,0,0,1,.72-1.75l3.72-3.71a2.46,2.46,0,0,1,3.49,0l40.23,40.22a2.49,2.49,0,0,1,.72,1.75v7.28a2.47,2.47,0,0,1-2.47,2.47H745.92A2.46,2.46,0,0,1,743.45,707.2Z" style="fill: #f4f4f4"/>
      <path id="outline-12" data-name="outline" d="M789.86,710.17H745.92a3,3,0,0,1-3-3V663.41a3,3,0,0,1,.87-2.1l3.72-3.72a3,3,0,0,1,4.19,0L792,697.82a3,3,0,0,1,.87,2.1v7.28A3,3,0,0,1,789.86,710.17Zm-40.23-52.45a2,2,0,0,0-1.39.58L744.52,662a2,2,0,0,0-.57,1.39V707.2a2,2,0,0,0,2,2h43.94a2,2,0,0,0,2-2v-7.28a2,2,0,0,0-.58-1.39L751,658.3A2,2,0,0,0,749.63,657.72Z"/>
    </g>
    <g id="unit_135">
      <path id="fill-13" data-name="fill" d="M714.58,814.4V763.06a2.47,2.47,0,0,0-.72-1.74l-1-1a2.46,2.46,0,0,0-1.75-.73h-9.85a2.46,2.46,0,0,1-2.47-2.46v-9.86a2.46,2.46,0,0,1,2.47-2.47H740a2.47,2.47,0,0,0,1.74-.72l1-1a2.51,2.51,0,0,0,.72-1.75V717.07a2.46,2.46,0,0,1,2.47-2.46h43.94a2.47,2.47,0,0,1,2.47,2.46V814.4a2.47,2.47,0,0,1-2.47,2.46H717.05A2.47,2.47,0,0,1,714.58,814.4Z" style="fill: #f4f4f4"/>
      <path id="outline-13" data-name="outline" d="M789.86,817.36H717.05a3,3,0,0,1-3-3V763.06a1.93,1.93,0,0,0-.58-1.39l-1-1a2,2,0,0,0-1.39-.58h-9.86a3,3,0,0,1-3-3v-9.86a3,3,0,0,1,3-3H740a1.93,1.93,0,0,0,1.39-.58l1-1a2,2,0,0,0,.58-1.39V717.07a3,3,0,0,1,3-3h43.94a3,3,0,0,1,3,3V814.4A3,3,0,0,1,789.86,817.36Zm-88.63-72.08a2,2,0,0,0-2,2v9.86a2,2,0,0,0,2,2h9.86a3,3,0,0,1,2.1.87l1,1a2.94,2.94,0,0,1,.87,2.09V814.4a2,2,0,0,0,2,2h72.81a2,2,0,0,0,2-2V717.07a2,2,0,0,0-2-2H745.92a2,2,0,0,0-2,2v24.22a3,3,0,0,1-.87,2.1l-1,1a3,3,0,0,1-2.1.87Z"/>
    </g>
    <g id="unit_133">
      <path id="fill-14" data-name="fill" d="M689.77,737.38v-74.7a2.44,2.44,0,0,1,.73-1.74l29.82-29.83a2.47,2.47,0,0,1,3.48,0l20.33,20.12a2.45,2.45,0,0,1,0,3.49l-4.56,4.56a2.38,2.38,0,0,0-.53.8l-.35.84a2.56,2.56,0,0,0-.19,1v75.52a2.47,2.47,0,0,1-2.46,2.47H692.24A2.48,2.48,0,0,1,689.77,737.38Z" style="fill: #f4f4f4"/>
      <path id="outline-14" data-name="outline" d="M736.05,740.35H692.24a3,3,0,0,1-3-3v-74.7a2.94,2.94,0,0,1,.87-2.09L720,630.76a3,3,0,0,1,4.18,0l20.33,20.11a3,3,0,0,1,0,4.21l-4.56,4.56a1.81,1.81,0,0,0-.43.63l-.35.84a2,2,0,0,0-.15.76v75.52A3,3,0,0,1,736.05,740.35Zm-14-109.46a2,2,0,0,0-1.39.57l-29.83,29.83a2,2,0,0,0-.58,1.39v74.7a2,2,0,0,0,2,2h43.81a2,2,0,0,0,2-2V661.86a3,3,0,0,1,.23-1.14l.35-.84a2.94,2.94,0,0,1,.64-1l4.56-4.56a2,2,0,0,0,0-2.79l-20.33-20.11A2,2,0,0,0,722.07,630.89Z"/>
    </g>
    <g id="unit_132">
      <path id="fill-15" data-name="fill" d="M679.32,598.07h10.15a2.47,2.47,0,0,1,1.74.72l16.35,16.34a2.47,2.47,0,0,1,0,3.49L681,645.22a2.46,2.46,0,0,1-4.21-1.75l.1-42.94A2.47,2.47,0,0,1,679.32,598.07Z" style="fill: #f4f4f4"/>
      <path id="outline-15" data-name="outline" d="M679.23,646.45a3,3,0,0,1-1.15-.24,2.89,2.89,0,0,1-1.83-2.74l.1-42.94a3,3,0,0,1,3-3h10.15a3,3,0,0,1,2.1.87l16.34,16.34a3,3,0,0,1,0,4.2l-26.6,26.59A2.89,2.89,0,0,1,679.23,646.45Zm.09-47.88a2,2,0,0,0-2,2l-.1,42.94a2,2,0,0,0,3.35,1.4l26.6-26.6a2,2,0,0,0,0-2.78l-16.34-16.35a2,2,0,0,0-1.39-.57Z"/>
    </g>
    <g id="unit_131">
      <rect id="fill-16" data-name="fill" x="619.61" y="618.76" width="73.02" height="31.62" rx="2.83" transform="translate(1290.69 -21.54) rotate(90)" style="fill: #f4f4f4"/>
      <path id="outline-16" data-name="outline" d="M669.09,671.58h-26a3.33,3.33,0,0,1-3.33-3.33V600.9a3.33,3.33,0,0,1,3.33-3.33h26a3.34,3.34,0,0,1,3.34,3.33v67.35A3.34,3.34,0,0,1,669.09,671.58Zm-26-73a2.33,2.33,0,0,0-2.33,2.33v67.35a2.33,2.33,0,0,0,2.33,2.33h26a2.33,2.33,0,0,0,2.34-2.33V600.9a2.33,2.33,0,0,0-2.34-2.33Z"/>
    </g>
    <g id="unit_130">
      <path id="fill-17" data-name="fill" d="M589,744.26V611a2.37,2.37,0,0,0-.19-.95l-.34-.84a2.57,2.57,0,0,0-.54-.8l-3.51-3.5a2.47,2.47,0,0,1,0-3.49l2.66-2.66a2.47,2.47,0,0,1,1.75-.72h44a2.46,2.46,0,0,1,2.47,2.46v72a2.47,2.47,0,0,0,.72,1.74l1,1a2.48,2.48,0,0,0,1.75.73h30.6a2.47,2.47,0,0,1,2.47,2.46v58.75a2.47,2.47,0,0,1-2.47,2.47h-2.6a2.49,2.49,0,0,0-1.75.72l-1,1a2.49,2.49,0,0,0-.72,1.75v1.07a2.48,2.48,0,0,1-2.47,2.47H591.51A2.47,2.47,0,0,1,589,744.26Z" style="fill: #f4f4f4"/>
      <path id="outline-17" data-name="outline" d="M660.9,747.23H591.51a3,3,0,0,1-3-3V611a2,2,0,0,0-.15-.76l-.35-.83a2,2,0,0,0-.42-.64l-3.51-3.51a3,3,0,0,1,0-4.2l2.66-2.65a2.94,2.94,0,0,1,2.1-.87h44a3,3,0,0,1,3,3v72a1.93,1.93,0,0,0,.58,1.39l1,1a2,2,0,0,0,1.39.58h30.6a3,3,0,0,1,3,3v58.75a3,3,0,0,1-3,3h-2.6a2,2,0,0,0-1.39.58l-1,1a1.94,1.94,0,0,0-.57,1.39v1.07A3,3,0,0,1,660.9,747.23Zm-72-148.66a2,2,0,0,0-1.4.57l-2.65,2.66a2,2,0,0,0,0,2.78l3.5,3.51a3,3,0,0,1,.65,1l.34.84a2.94,2.94,0,0,1,.23,1.14V744.26a2,2,0,0,0,2,2H660.9a2,2,0,0,0,2-2v-1.07a3,3,0,0,1,.87-2.1l1-1a3,3,0,0,1,2.1-.87h2.6a2,2,0,0,0,2-2V678.48a2,2,0,0,0-2-2h-30.6a3,3,0,0,1-2.1-.87l-1-1a3,3,0,0,1-.87-2.1v-72a2,2,0,0,0-2-2Z"/>
    </g>
    <g id="unit_129">
      <path id="fill-18" data-name="fill" d="M559.05,626.86l18.44-18.43a2.44,2.44,0,0,1,3.48,0l2.41,2.4a2.46,2.46,0,0,1,.73,1.75v36.87a2.47,2.47,0,0,1-4.22,1.75l-20.84-20.85A2.47,2.47,0,0,1,559.05,626.86Z" style="fill: #f4f4f4"/>
      <path id="outline-18" data-name="outline" d="M581.62,652.43a2.89,2.89,0,0,1-2.08-.88L558.7,630.71a3,3,0,0,1,0-4.2l18.43-18.44a3,3,0,0,1,4.2,0l2.41,2.41a3,3,0,0,1,.86,2.1v36.87a2.92,2.92,0,0,1-1.83,2.74A3,3,0,0,1,581.62,652.43Zm-2.39-44.23a2,2,0,0,0-1.39.58L559.4,627.22a2,2,0,0,0,0,2.78l20.85,20.84a2,2,0,0,0,3.35-1.39V612.58a2,2,0,0,0-.57-1.39l-2.41-2.41A2,2,0,0,0,579.23,608.2Z"/>
    </g>
    <g id="unit_128">
      <path id="fill-19" data-name="fill" d="M534,651.88l8.83-8.83a2.47,2.47,0,0,1,3.49,0l24.42,24.42a2.47,2.47,0,0,1,.72,1.74V686.8a2.47,2.47,0,0,1-4.21,1.75L534,655.37A2.47,2.47,0,0,1,534,651.88Z" style="fill: #f4f4f4"/>
      <path id="outline-19" data-name="outline" d="M569,689.77a2.92,2.92,0,0,1-2.08-.87l-33.25-33.18a3,3,0,0,1,0-4.19l8.83-8.83a3,3,0,0,1,4.2,0l24.41,24.41a3,3,0,0,1,.87,2.1V686.8a3,3,0,0,1-3,3Zm-34.62-37.54a1.93,1.93,0,0,0-.58,1.4,2,2,0,0,0,.58,1.39l33.25,33.17a1.93,1.93,0,0,0,2.14.43A2,2,0,0,0,571,686.8V669.21a2,2,0,0,0-.57-1.39L546,643.4a2,2,0,0,0-2.78,0Z"/>
    </g>
    <g id="unit_127">
      <path id="fill-20" data-name="fill" d="M531.16,720l12.54-12.54a2.47,2.47,0,0,0,.72-1.74v-1.45a2.47,2.47,0,0,0-.72-1.74l-28.42-28.41a2.47,2.47,0,0,1,0-3.49l11.77-11.77a2.47,2.47,0,0,1,3.49,0L570.67,699a2.46,2.46,0,0,1,.73,1.75V733a2.47,2.47,0,0,1-2.46,2.47l-24.66.07a2.43,2.43,0,0,1-1.75-.72l-11.37-11.37A2.47,2.47,0,0,1,531.16,720Z" style="fill: #f4f4f4"/>
      <path id="outline-20" data-name="outline" d="M544.28,736.08a2.94,2.94,0,0,1-2.1-.87l-11.37-11.37a3,3,0,0,1,0-4.19h0l12.53-12.54a2,2,0,0,0,.58-1.39v-1.45a2,2,0,0,0-.58-1.39l-28.41-28.41a3,3,0,0,1,0-4.2l11.77-11.76a3,3,0,0,1,4.19,0L571,698.64a3,3,0,0,1,.87,2.1V733a3,3,0,0,1-3,3l-24.65.07ZM528.8,658.64a2,2,0,0,0-1.4.57L515.64,671a2,2,0,0,0,0,2.78l28.41,28.41a3,3,0,0,1,.87,2.1v1.45a3,3,0,0,1-.87,2.1l-12.54,12.53a2,2,0,0,0-.57,1.39,2,2,0,0,0,.57,1.4l11.38,11.37a2,2,0,0,0,1.39.57h0l24.65-.07a2,2,0,0,0,2-2v-32.3a2,2,0,0,0-.58-1.39l-40.13-40.14A2,2,0,0,0,528.8,658.64Z"/>
    </g>
    <g id="unit_126">
      <rect id="fill-21" data-name="fill" x="508.61" y="676.46" width="18.75" height="41.2" rx="2.47" transform="translate(-341.18 570.44) rotate(-45)" style="fill: #f4f4f4"/>
      <path id="outline-21" data-name="outline" d="M525.92,717.73a2.92,2.92,0,0,1-2.09-.87l-25.65-25.64a3,3,0,0,1,0-4.2l9.77-9.77a3,3,0,0,1,4.2,0l25.64,25.65a3,3,0,0,1,0,4.19L528,716.86A3,3,0,0,1,525.92,717.73Zm-15.87-40.35a2,2,0,0,0-1.39.58l-9.77,9.77a2,2,0,0,0,0,2.78l25.64,25.65a2,2,0,0,0,2.79,0l9.77-9.77a2,2,0,0,0,.57-1.39,2,2,0,0,0-.57-1.4L511.44,678A2,2,0,0,0,510.05,677.38Z"/>
    </g>
    <g id="unit_125">
      <path id="fill-22" data-name="fill" d="M511.49,734.87,488.6,712a2.47,2.47,0,0,1,0-3.49l8.54-8.54a2.47,2.47,0,0,1,3.49,0l31.44,31.44a2.47,2.47,0,0,1-1.75,4.21H513.24A2.49,2.49,0,0,1,511.49,734.87Z" style="fill: #f4f4f4"/>
      <path id="outline-22" data-name="outline" d="M530.32,736.09H513.24a3,3,0,0,1-2.1-.87h0l-22.89-22.89a3,3,0,0,1,0-4.2l8.54-8.54a3,3,0,0,1,4.19,0L532.42,731a3,3,0,0,1-2.1,5.06Zm-31.43-36.37a1.94,1.94,0,0,0-1.39.57L489,708.84a2,2,0,0,0,0,2.78l22.9,22.89a2,2,0,0,0,1.39.58h17.08a2,2,0,0,0,1.4-3.36l-31.44-31.44A2,2,0,0,0,498.89,699.72Z"/>
    </g>
    <g id="unit_124">
      <path id="fill-23" data-name="fill" d="M382.65,814.4v-11a2.46,2.46,0,0,1,.73-1.75l42.21-42.21a2.46,2.46,0,0,1,3.49,0l1.82,1.81a2.47,2.47,0,0,0,1.74.72h1.45a2.47,2.47,0,0,0,1.74-.72l45.84-45.84a2.47,2.47,0,0,1,3.49,0l23.94,24a2.38,2.38,0,0,0,.8.53l.84.35a2.54,2.54,0,0,0,.94.19h57.25a2.47,2.47,0,0,1,2.47,2.46V814.4a2.47,2.47,0,0,1-2.47,2.46H385.12A2.47,2.47,0,0,1,382.65,814.4Z" style="fill: #f4f4f4"/>
      <path id="outline-23" data-name="outline" d="M568.93,817.36H385.12a3,3,0,0,1-3-3v-11a3,3,0,0,1,.87-2.1l42.22-42.22a3,3,0,0,1,4.2,0l1.81,1.82a2,2,0,0,0,1.39.57h1.45a2,2,0,0,0,1.39-.57l45.83-45.84a3,3,0,0,1,4.2,0L509.46,739a1.81,1.81,0,0,0,.63.43l.84.35a2,2,0,0,0,.75.15h57.25a3,3,0,0,1,3,3v71.5A3,3,0,0,1,568.93,817.36ZM427.34,759.21a2,2,0,0,0-1.39.58L383.73,802a2,2,0,0,0-.58,1.39v11a2,2,0,0,0,2,2H568.93a2,2,0,0,0,2-2V742.9a2,2,0,0,0-2-2H511.68a2.93,2.93,0,0,1-1.13-.23l-.84-.34a3.13,3.13,0,0,1-1-.65L484.8,715.77a2,2,0,0,0-2.78,0L436.18,761.6a2.94,2.94,0,0,1-2.09.87h-1.45a3,3,0,0,1-2.1-.87l-1.81-1.81A2,2,0,0,0,427.34,759.21Z"/>
    </g>
    <g id="unit_120">
      <path id="fill-24" data-name="fill" d="M282.22,762.28V687.43a2.47,2.47,0,0,1,1.89-2.4l88.39-21.45a2.45,2.45,0,0,0,1.32-.84l.84-1a2.44,2.44,0,0,0,.55-1.47l4.61-122a2.47,2.47,0,0,1,2.49-2.38l51.64.42a2.52,2.52,0,0,0,1.76-.72l1-1a2.44,2.44,0,0,0,.73-1.75V498.89a2.48,2.48,0,0,1,2.47-2.47h79.18a2.46,2.46,0,0,1,1.75.73l42.5,42.5a2.47,2.47,0,0,1,0,3.49L342.47,764a2.44,2.44,0,0,1-1.74.73h-56A2.47,2.47,0,0,1,282.22,762.28Z" style="fill: #f4f4f4"/>
      <path id="outline-24" data-name="outline" d="M340.73,765.25h-56a3,3,0,0,1-3-3V687.43a3,3,0,0,1,2.27-2.88l88.39-21.46a2,2,0,0,0,1.06-.66l.83-1a1.92,1.92,0,0,0,.44-1.17l4.61-122.05a3,3,0,0,1,3-2.86l51.64.42a1.89,1.89,0,0,0,1.4-.57l1-1a2,2,0,0,0,.58-1.4V498.89a3,3,0,0,1,3-3h79.18a3,3,0,0,1,2.1.87l42.5,42.51a3,3,0,0,1,0,4.19L342.83,764.38A3,3,0,0,1,340.73,765.25Zm41.56-228.93a2,2,0,0,0-2,1.9l-4.61,122a3,3,0,0,1-.66,1.77l-.84,1a3,3,0,0,1-1.6,1l-88.38,21.45a2,2,0,0,0-1.51,1.91v74.85a2,2,0,0,0,2,2h56a2,2,0,0,0,1.39-.58L563,542.78a2,2,0,0,0,0-2.78l-42.5-42.5a2,2,0,0,0-1.39-.58H439.93a2,2,0,0,0-2,2v33.86a3,3,0,0,1-.87,2.11l-1,1a3,3,0,0,1-2.11.86l-51.65-.42Z"/>
    </g>
    <g id="unit_118">
      <path id="fill-25" data-name="fill" d="M522.45,492l-.84-.34a2.37,2.37,0,0,0-1-.19H439.92a2.48,2.48,0,0,1-2.47-2.47V470.61a2.47,2.47,0,0,0-.72-1.75l-1-1a2.49,2.49,0,0,0-1.75-.72h-27.6a2.48,2.48,0,0,1-2.47-2.47v-1.49a2.47,2.47,0,0,0-.72-1.74l-1-1a2.47,2.47,0,0,0-1.75-.72H385a2.47,2.47,0,0,1-2.47-2.56l5-139.15a2.46,2.46,0,0,1,2.34-2.38l211.61-10.12a2.46,2.46,0,0,1,2.58,2.47l-.6,149.9a2.33,2.33,0,0,1-.14.78l-22.91,67.06a2.54,2.54,0,0,1-.59,1l-9.53,9.53a2.47,2.47,0,0,1-3.49,0l-43.6-43.6A2.57,2.57,0,0,0,522.45,492Z" style="fill: #f4f4f4"/>
      <path id="outline-25" data-name="outline" d="M568.59,537.38a3,3,0,0,1-2.1-.87l-43.6-43.6a1.83,1.83,0,0,0-.64-.42l-.83-.35a2,2,0,0,0-.76-.15H439.92a3,3,0,0,1-3-3V470.61a1.94,1.94,0,0,0-.57-1.39l-1-1a1.94,1.94,0,0,0-1.39-.57h-27.6a3,3,0,0,1-3-3v-1.49a2,2,0,0,0-.57-1.39l-1-1a2,2,0,0,0-1.39-.57H385a3,3,0,0,1-3-3.08l5-139.15a3,3,0,0,1,2.82-2.86L601.5,305a3,3,0,0,1,3.11,3l-.6,149.9a3.1,3.1,0,0,1-.16,1l-22.92,67.05a3,3,0,0,1-.71,1.14l-9.53,9.53A3,3,0,0,1,568.59,537.38Zm-46-45.82a3,3,0,0,1,1,.65l43.6,43.6a2,2,0,0,0,2.78,0l9.53-9.53a2,2,0,0,0,.47-.76l22.92-67.06a1.9,1.9,0,0,0,.11-.63l.6-149.89a2,2,0,0,0-2.06-2L390,316.09a2,2,0,0,0-1.87,1.9l-5,139.15a1.9,1.9,0,0,0,.55,1.43,2,2,0,0,0,1.42.61H400.4a3,3,0,0,1,2.1.86l1,1a2.94,2.94,0,0,1,.87,2.09v1.49a2,2,0,0,0,2,2H434a3,3,0,0,1,2.1.87l1,1a2.94,2.94,0,0,1,.87,2.1V489a2,2,0,0,0,2,2h80.74a2.93,2.93,0,0,1,1.14.22Z"/>
    </g>
    <g id="unit_117">
      <path id="fill-26" data-name="fill" d="M639.51,349.76V306a2.47,2.47,0,0,1,2.35-2.47l89.89-4.31a2.47,2.47,0,0,1,1.86.72l1.92,1.91a2.47,2.47,0,0,1,0,3.49L689.37,351.5a2.47,2.47,0,0,1-1.74.72H642A2.46,2.46,0,0,1,639.51,349.76Z" style="fill: #f4f4f4"/>
      <path id="outline-26" data-name="outline" d="M687.63,352.72H642a3,3,0,0,1-3-3V306a3,3,0,0,1,2.82-3l89.9-4.31a2.93,2.93,0,0,1,2.24.87l1.91,1.91a3,3,0,0,1,0,4.2l-46.16,46.15A2.94,2.94,0,0,1,687.63,352.72Zm44.24-53h-.1L641.88,304a2,2,0,0,0-1.87,2v43.76a2,2,0,0,0,2,2h45.66a2,2,0,0,0,1.39-.57L735.17,305a2,2,0,0,0,0-2.78l-1.91-1.92A2,2,0,0,0,731.87,299.72Z"/>
    </g>
    <g id="unit_115">
      <rect id="fill-27" data-name="fill" x="639.51" y="357.16" width="47.69" height="45.4" rx="2.47" style="fill: #f4f4f4"/>
      <path id="outline-27" data-name="outline" d="M684.73,403.06H642a3,3,0,0,1-3-3V359.63a3,3,0,0,1,3-3h42.76a3,3,0,0,1,3,3v40.46A3,3,0,0,1,684.73,403.06ZM642,357.66a2,2,0,0,0-2,2v40.46a2,2,0,0,0,2,2h42.76a2,2,0,0,0,2-2V359.63a2,2,0,0,0-2-2Z"/>
    </g>
    <g id="unit_114">
      <path id="fill-28" data-name="fill" d="M639.51,446.18V410A2.46,2.46,0,0,1,642,407.5h45.66a2.47,2.47,0,0,1,1.74.72l2.08,2.08a2.46,2.46,0,0,1,0,3.49l-34.13,34.14a2.47,2.47,0,0,1-1.75.72H642A2.47,2.47,0,0,1,639.51,446.18Z" style="fill: #f4f4f4"/>
      <path id="outline-28" data-name="outline" d="M655.58,449.15H642a3,3,0,0,1-3-3V410a3,3,0,0,1,3-3h45.66a2.94,2.94,0,0,1,2.09.87l2.09,2.08a3,3,0,0,1,0,4.2l-34.14,34.13A2.94,2.94,0,0,1,655.58,449.15ZM642,408a2,2,0,0,0-2,2v36.22a2,2,0,0,0,2,2h13.61a2,2,0,0,0,1.39-.58l34.13-34.13a2,2,0,0,0,0-2.78L689,408.57a2,2,0,0,0-1.39-.57Z"/>
    </g>
    <g id="unit_113">
      <path id="fill-29" data-name="fill" d="M692.14,403V366.61a2.47,2.47,0,0,1,4.21-1.74l20.26,20.28a2.47,2.47,0,0,1,0,3.49l-18.17,18.17a2.46,2.46,0,0,1-3.49,0l-2.08-2.08A2.47,2.47,0,0,1,692.14,403Z" style="fill: #f4f4f4"/>
      <path id="outline-29" data-name="outline" d="M696.69,408a2.94,2.94,0,0,1-2.1-.87l-2.08-2.09a2.94,2.94,0,0,1-.87-2.09V366.61a3,3,0,0,1,5.06-2.09L717,384.8a3,3,0,0,1,0,4.2l-18.17,18.17A3,3,0,0,1,696.69,408Zm-2.07-43.4a2,2,0,0,0-2,2V403a2,2,0,0,0,.57,1.39l2.09,2.08a2,2,0,0,0,2.78,0l18.17-18.17a2,2,0,0,0,0-2.78L696,365.22A1.94,1.94,0,0,0,694.62,364.64Z"/>
    </g>
    <g id="unit_112b">
      <path id="fill-30" data-name="fill" d="M694.9,353l15.54-15.54a2.47,2.47,0,0,1,3.49,0l25.21,25.21a2.47,2.47,0,0,1,0,3.49l-15.56,15.55a2.46,2.46,0,0,1-3.49,0L694.9,356.44A2.47,2.47,0,0,1,694.9,353Z" style="fill: #f4f4f4"/>
      <path id="outline-30" data-name="outline" d="M721.84,382.89h0a2.94,2.94,0,0,1-2.1-.87l-25.19-25.23a3,3,0,0,1,0-4.2l15.53-15.53a3,3,0,0,1,4.2,0l25.21,25.21a3,3,0,0,1,0,4.19L723.94,382A3,3,0,0,1,721.84,382.89ZM695.25,353.3a2,2,0,0,0,0,2.78l25.2,25.23a2,2,0,0,0,1.39.58h0a2,2,0,0,0,1.39-.58l15.55-15.55a2,2,0,0,0,0-2.79l-25.21-25.2a2,2,0,0,0-2.78,0Z"/>
    </g>
    <g id="unit_112a">
      <path id="fill-31" data-name="fill" d="M717.42,330.43l21.6-21.6a2.47,2.47,0,0,1,3.49,0l27.88,27.78a2.49,2.49,0,0,1,0,3.5l-21.66,21.65a2.47,2.47,0,0,1-3.49,0l-27.82-27.83A2.46,2.46,0,0,1,717.42,330.43Z" style="fill: #f4f4f4"/>
      <path id="outline-31" data-name="outline" d="M747,363a3,3,0,0,1-2.1-.87l-27.83-27.82a3,3,0,0,1,0-4.2l21.61-21.61a3,3,0,0,1,4.19,0l27.88,27.78a3,3,0,0,1,0,4.2L749.09,362.1A3,3,0,0,1,747,363Zm-29.22-32.18a2,2,0,0,0,0,2.78L745.6,361.4a2,2,0,0,0,2.78,0L770,339.74a2,2,0,0,0,0-2.78l-27.87-27.78a2,2,0,0,0-2.78,0Z"/>
    </g>
    <g id="unit_111">
      <path id="fill-32" data-name="fill" d="M762.51,421.18l36.9-36.9a2.47,2.47,0,0,1,3.87.48l39.26,65.93a2.48,2.48,0,0,1-.38,3L818.6,477.26a2.46,2.46,0,0,1-3.49,0l-52.6-52.59A2.47,2.47,0,0,1,762.51,421.18Z" style="fill: #f4f4f4"/>
      <path id="outline-32" data-name="outline" d="M816.85,478.48a3,3,0,0,1-2.1-.86L762.16,425a3,3,0,0,1,0-4.2h0l36.9-36.9a2.92,2.92,0,0,1,2.46-.84,3,3,0,0,1,2.19,1.42L843,450.43a3,3,0,0,1-.46,3.62L819,477.62A3,3,0,0,1,816.85,478.48Zm-15.7-94.43a2,2,0,0,0-1.38.58l-36.91,36.9a2,2,0,0,0,0,2.78l52.6,52.6a2,2,0,0,0,2.78,0l23.57-23.57a2,2,0,0,0,.3-2.39L802.85,385a2,2,0,0,0-1.45-.94Z"/>
    </g>
    <g id="unit_110">
      <rect id="fill-33" data-name="fill" x="746.31" y="430.95" width="30.66" height="42.99" rx="2.47" transform="translate(-96.85 671.08) rotate(-45)" style="fill: #f4f4f4"/>
      <path id="outline-33" data-name="outline" d="M766,478a3,3,0,0,1-2.1-.86L737,450.19a3,3,0,0,1,0-4.2l18.19-18.19a3,3,0,0,1,4.2,0l26.9,26.91a3,3,0,0,1,0,4.2L768.09,477.1A3,3,0,0,1,766,478ZM737.69,446.7a2,2,0,0,0,0,2.78l26.91,26.91a2,2,0,0,0,2.79,0l18.19-18.19a2,2,0,0,0,0-2.78l-26.91-26.91a2,2,0,0,0-2.78,0Z"/>
    </g>
    <g id="unit_109">
      <rect id="fill-34" data-name="fill" x="720.43" y="456.42" width="31.58" height="43.21" rx="2.47" transform="translate(-122.38 660.6) rotate(-45)" style="fill: #f4f4f4"/>
      <path id="outline-34" data-name="outline" d="M761.27,480,734.21,453a3,3,0,0,0-4.2,0l-18.84,18.84a3,3,0,0,0,0,4.2l27.06,27.06a3,3,0,0,0,4.2,0l18.84-18.84a3,3,0,0,0,0-4.2Zm-.71,3.49-18.84,18.85a2,2,0,0,1-2.78,0L711.87,475.3a2,2,0,0,1,0-2.78l18.85-18.84a2,2,0,0,1,2.78,0l27.06,27.06a2,2,0,0,1,0,2.78Z"/>
    </g>
    <g id="unit_107">
      <path id="fill-35" data-name="fill" d="M684.74,499l19.73-19.73a2.47,2.47,0,0,1,3.49,0l52.52,52.52a2.47,2.47,0,0,1,0,3.49l-20,20a2.46,2.46,0,0,1-3.49,0l-52.27-52.78A2.46,2.46,0,0,1,684.74,499Z" style="fill: #f4f4f4"/>
      <path id="outline-35" data-name="outline" d="M738.75,556.44h0a2.93,2.93,0,0,1-2.1-.88l-52.27-52.78a3,3,0,0,1,0-4.18l19.73-19.73a3,3,0,0,1,4.2,0l52.53,52.52a3,3,0,0,1,0,4.2l-20,20A3,3,0,0,1,738.75,556.44ZM685.09,499.3a2,2,0,0,0,0,2.78l52.26,52.78a2,2,0,0,0,1.39.58h0a1.91,1.91,0,0,0,1.39-.58l20-20a2,2,0,0,0,0-2.78L707.6,479.57a2,2,0,0,0-2.78,0Z"/>
    </g>
    <g id="unit_106">
      <path id="fill-36" data-name="fill" d="M822.09,480.75,843.85,459a2.46,2.46,0,0,1,3.87.5L862,483.84a2.47,2.47,0,0,1-.4,3l-17,16.48a2.46,2.46,0,0,1-3.46,0l-19.07-19.07A2.46,2.46,0,0,1,822.09,480.75Z" style="fill: #f4f4f4"/>
      <path id="outline-36" data-name="outline" d="M842.9,504.53a3,3,0,0,1-2.09-.86l-19.08-19.08a3,3,0,0,1,0-4.19l21.76-21.76a3,3,0,0,1,4.66.59l14.28,24.36a3,3,0,0,1-.5,3.63L845,503.7A3,3,0,0,1,842.9,504.53ZM822.44,481.1a2,2,0,0,0,0,2.79L841.51,503a2,2,0,0,0,2.77,0l17-16.48a2,2,0,0,0,.32-2.41l-14.27-24.35a2,2,0,0,0-3.09-.4Z"/>
    </g>
    <g id="unit_105">
      <path id="fill-37" data-name="fill" d="M744,558.72,766.74,536a2.47,2.47,0,0,0,.72-1.74v-1.45a2.47,2.47,0,0,0-.72-1.74l-21.27-21.27a2.46,2.46,0,0,1,0-3.48l43.82-44.35a2.47,2.47,0,0,1,3.5,0l44.84,44.84a2.47,2.47,0,0,1,0,3.49l-71.07,71.07a2.46,2.46,0,0,1-3.49,0L744,562.21A2.46,2.46,0,0,1,744,558.72Z" style="fill: #f4f4f4"/>
      <path id="outline-37" data-name="outline" d="M764.81,582.53a3,3,0,0,1-2.1-.86l-19.1-19.1a3,3,0,0,1,0-4.2l22.77-22.77a1.93,1.93,0,0,0,.58-1.39v-1.45a2,2,0,0,0-.58-1.39L745.12,510.1a3,3,0,0,1,0-4.18l43.82-44.35a2.93,2.93,0,0,1,2.1-.88h0a3,3,0,0,1,2.1.87L838,506.4a3,3,0,0,1,0,4.2l-71.06,71.07A3,3,0,0,1,764.81,582.53Zm-20.49-23.45a2,2,0,0,0,0,2.78l19.1,19.1a2,2,0,0,0,2.78,0l71.07-71.07a2,2,0,0,0,0-2.78l-44.85-44.85a1.94,1.94,0,0,0-1.39-.57h0a2,2,0,0,0-1.4.58l-43.82,44.35a2,2,0,0,0,0,2.78l21.27,21.27a3,3,0,0,1,.87,2.09v1.45a3,3,0,0,1-.87,2.1Z"/>
    </g>
    <g id="unit_104">
      <rect id="fill-38" data-name="fill" x="767.78" y="554.3" width="78.36" height="30.98" rx="2.47" transform="translate(-166.56 737.49) rotate(-45)" style="fill: #f4f4f4"/>
      <path id="outline-38" data-name="outline" d="M790.21,607.93a2.94,2.94,0,0,1-2.1-.87l-18.42-18.42a3,3,0,0,1,0-4.19l51.92-51.92a3,3,0,0,1,4.19,0L844.22,551a2.9,2.9,0,0,1,.87,2.1,2.93,2.93,0,0,1-.87,2.1l-51.91,51.91A3,3,0,0,1,790.21,607.93Zm33.5-75.27a2,2,0,0,0-1.4.58L770.4,585.15a2,2,0,0,0-.58,1.4,1.93,1.93,0,0,0,.58,1.39l18.42,18.42a2,2,0,0,0,2.78,0l51.92-51.92a2,2,0,0,0,0-2.78L825.1,533.24A1.93,1.93,0,0,0,823.71,532.66Z"/>
    </g>
    <g id="unit_103">
      <path id="fill-39" data-name="fill" d="M797.35,608.3l52.78-52.79a2.47,2.47,0,0,0,.72-1.74v-1.45a2.47,2.47,0,0,0-.72-1.74L829,529.42a2.46,2.46,0,0,1,0-3.5l34.34-33.81a2.47,2.47,0,0,1,3.85.5l43.76,73.82a2.47,2.47,0,0,1-2.12,3.73H869.37a2.47,2.47,0,0,0-1.74.72l-1,1a2.44,2.44,0,0,0-.73,1.75v42.11a2.42,2.42,0,0,1-.16.89L859.4,633a2.45,2.45,0,0,1-3.17,1.41l-58-22A2.47,2.47,0,0,1,797.35,608.3Z" style="fill: #f4f4f4"/>
      <path id="outline-39" data-name="outline" d="M857.1,635.05a3,3,0,0,1-1.05-.19l-58-22a3,3,0,0,1-1-4.88l52.78-52.78a2,2,0,0,0,.58-1.39v-1.45a2,2,0,0,0-.58-1.39l-21.16-21.16a3,3,0,0,1,0-4.21L863,491.75a3,3,0,0,1,4.63.61l43.76,73.82a3,3,0,0,1-2.55,4.48H869.37a2,2,0,0,0-1.39.57l-1,1a2,2,0,0,0-.58,1.4v42.11a2.79,2.79,0,0,1-.2,1.07l-6.31,16.33A3,3,0,0,1,857.1,635.05ZM865,491.9a1.93,1.93,0,0,0-1.37.57l-34.34,33.8a2,2,0,0,0-.59,1.4,2,2,0,0,0,.58,1.4l21.16,21.16a3,3,0,0,1,.87,2.09v1.45a3,3,0,0,1-.87,2.1L797.7,608.65a2,2,0,0,0,.69,3.23l58,22a2,2,0,0,0,2.54-1.13l6.31-16.33a1.87,1.87,0,0,0,.13-.71V573.65a2.94,2.94,0,0,1,.87-2.1l1-1a3,3,0,0,1,2.1-.86h39.44a2,2,0,0,0,1.71-1,1.91,1.91,0,0,0,0-2l-43.76-73.82a1.94,1.94,0,0,0-1.44-.95Z"/>
    </g>
    <g id="unit_102">
      <path id="fill-40" data-name="fill" d="M896.83,805.57v-41a2.47,2.47,0,0,0-.72-1.74l-1-1a2.47,2.47,0,0,0-1.75-.72H844.79a2.46,2.46,0,0,1-2.47-2.48l.3-40a2.46,2.46,0,0,1,.63-1.63l26.64-29.59a2.42,2.42,0,0,0,.27-.36l.23-.39a1.87,1.87,0,0,0,.2-.4l7.1-18.57a2.45,2.45,0,0,0-.05-1.88l-.58-1.32a2.54,2.54,0,0,0-1.36-1.3L870.08,661a2.47,2.47,0,0,1-1.41-3.19l12.79-32.74a2.49,2.49,0,0,1,2.3-1.57h18a2.47,2.47,0,0,0,1.74-.72l1-1a2.47,2.47,0,0,0,.72-1.75v-5.36a2.46,2.46,0,0,1,2.47-2.46h13.91a2.44,2.44,0,0,0,1.75-.73l1-1a2.47,2.47,0,0,0,.72-1.74v-3.9a2.48,2.48,0,0,1,2.47-2.47h3.27a2.46,2.46,0,0,1,2.12,1.21l63.3,106.37a2.44,2.44,0,0,1,.35,1.26v94.4a2.48,2.48,0,0,1-2.47,2.47H899.3A2.48,2.48,0,0,1,896.83,805.57Z" style="fill: #f4f4f4"/>
      <path id="outline-40" data-name="outline" d="M994.11,808.54H899.3a3,3,0,0,1-3-3v-41a2,2,0,0,0-.57-1.39l-1-1a2,2,0,0,0-1.39-.58H844.79a3,3,0,0,1-3-3l.3-40a3,3,0,0,1,.76-2l26.63-29.59a1.48,1.48,0,0,0,.22-.29l.24-.39a1.87,1.87,0,0,0,.15-.32l7.1-18.57a1.91,1.91,0,0,0,0-1.5l-.58-1.31a2,2,0,0,0-1.08-1l-5.63-2.19a3,3,0,0,1-1.68-3.85L881,624.89a2.94,2.94,0,0,1,2.76-1.89h18a2,2,0,0,0,1.39-.57l1-1a2,2,0,0,0,.58-1.39v-5.36a3,3,0,0,1,3-3h13.91a2,2,0,0,0,1.4-.58l1-1a2,2,0,0,0,.57-1.39v-3.9a3,3,0,0,1,3-3h3.27a3,3,0,0,1,2.55,1.45l63.3,106.38a3,3,0,0,1,.42,1.51v94.4A3,3,0,0,1,994.11,808.54ZM883.76,624a2,2,0,0,0-1.83,1.25L869.14,658a2,2,0,0,0,1.12,2.55l5.62,2.19a2.93,2.93,0,0,1,1.63,1.56l.59,1.32a3,3,0,0,1,.06,2.26l-7.1,18.57a4.44,4.44,0,0,1-.24.49l-.23.38a4.59,4.59,0,0,1-.33.44l-26.63,29.59a1.9,1.9,0,0,0-.51,1.3l-.3,40a2,2,0,0,0,2,2h48.56a2.94,2.94,0,0,1,2.09.87l1,1a3,3,0,0,1,.86,2.1v41a2,2,0,0,0,2,2h94.81a2,2,0,0,0,2-2v-94.4a2,2,0,0,0-.28-1L932.5,603.79a2,2,0,0,0-1.69-1h-3.27a2,2,0,0,0-2,2v3.9a3,3,0,0,1-.87,2.1l-1,1a3,3,0,0,1-2.1.87H907.67a2,2,0,0,0-2,2V620a2.94,2.94,0,0,1-.87,2.1l-1,1a3,3,0,0,1-2.1.87Z"/>
    </g>
    <g id="unit_101">
      <rect id="fill-41" data-name="fill" x="846.1" y="762.24" width="41.98" height="49.62" rx="2.83" transform="translate(1654.14 -80.04) rotate(90)" style="fill: #f4f4f4"/>
      <path id="outline-41" data-name="outline" d="M889.06,808.54H845.12a3.35,3.35,0,0,1-3.34-3.34V768.89a3.34,3.34,0,0,1,3.34-3.33h43.94a3.34,3.34,0,0,1,3.34,3.33V805.2A3.35,3.35,0,0,1,889.06,808.54Zm-43.94-42a2.33,2.33,0,0,0-2.34,2.33V805.2a2.34,2.34,0,0,0,2.34,2.34h43.94a2.34,2.34,0,0,0,2.34-2.34V768.89a2.33,2.33,0,0,0-2.34-2.33Z"/>
    </g>
    <g id="unit_K01">
      <rect id="fill-42" data-name="fill" x="1007.96" y="744.95" width="95.67" height="30.5" rx="2.83" transform="translate(295.6 1816) rotate(-90)" style="fill: #f4f4f4"/>
      <path id="outline-42" data-name="outline" d="M1068.22,808.54h-24.84a3.34,3.34,0,0,1-3.33-3.34v-90a3.33,3.33,0,0,1,3.33-3.33h24.84a3.34,3.34,0,0,1,3.33,3.33v90A3.34,3.34,0,0,1,1068.22,808.54Zm-24.84-95.67a2.33,2.33,0,0,0-2.33,2.33v90a2.34,2.34,0,0,0,2.33,2.34h24.84a2.34,2.34,0,0,0,2.33-2.34v-90a2.33,2.33,0,0,0-2.33-2.33Z"/>
    </g>
  </g>
  <g id="pictograms">
    <path id="entrance" d="M830.65,821a1.52,1.52,0,0,1-3,.18v-7.79a1.52,1.52,0,0,0-1.35-1.51H807.82a1.53,1.53,0,0,0-1.52,1.34v7a1.52,1.52,0,0,1-3,.18v-7a4.57,4.57,0,0,1,4.3-4.56h18.53a4.56,4.56,0,0,1,4.56,4.3V821Zm-8.32,3.49a1.51,1.51,0,0,1,0,2.15,1.53,1.53,0,0,1-2,.13l-.14-.13L818.47,825v8.25a1.52,1.52,0,0,1-3,.17V825l-1.71,1.71a1.51,1.51,0,0,1-2.15,0,1.53,1.53,0,0,1-.13-2l.13-.14,4.3-4.31a1.52,1.52,0,0,1,2-.12l.15.12Z"/>
    <path id="entrance-2" data-name="entrance" d="M1069.5,828.92a1.52,1.52,0,0,1-3,.18v-7.79a1.52,1.52,0,0,0-1.35-1.51h-18.44a1.53,1.53,0,0,0-1.52,1.34v7a1.52,1.52,0,0,1-3,.18v-7a4.57,4.57,0,0,1,4.3-4.56h18.53a4.57,4.57,0,0,1,4.56,4.3v7.88Zm-8.32,3.49a1.52,1.52,0,0,1-2,2.28l-.14-.13-1.71-1.7v8.24a1.52,1.52,0,0,1-3,.18v-8.42l-1.71,1.7a1.52,1.52,0,0,1-2.28-2l.13-.15,4.3-4.3a1.53,1.53,0,0,1,2-.13l.15.13Z"/>
    <path id="entrance-3" data-name="entrance" d="M1042.1,692.77a1.52,1.52,0,0,1,3-.18v7.79a1.52,1.52,0,0,0,1.35,1.51h18.44a1.52,1.52,0,0,0,1.51-1.34l0-.18v-6.85a1.52,1.52,0,0,1,3-.18v7a4.57,4.57,0,0,1-4.3,4.56h-18.53a4.56,4.56,0,0,1-4.56-4.29v-7.88Zm8.32-3.49a1.52,1.52,0,0,1,2-2.28l.14.12,1.71,1.71v-8.24a1.52,1.52,0,0,1,3-.18v8.42l1.71-1.71a1.52,1.52,0,0,1,2.28,2l-.13.15-4.3,4.3a1.53,1.53,0,0,1-2,.13l-.15-.13Z"/>
    <path id="entrance-4" data-name="entrance" d="M779.33,346.08a1.51,1.51,0,0,1,2.15,0,1.53,1.53,0,0,1,.12,2l-.12.13-5.38,5.38a1.53,1.53,0,0,0-.12,2l.12.14L789,368.68a1.53,1.53,0,0,0,2,.12l.13-.12,4.84-4.84a1.53,1.53,0,0,1,2.28,2l-.12.13-4.85,4.85a4.56,4.56,0,0,1-6.26.18l-.2-.18L774,357.92a4.57,4.57,0,0,1-.19-6.26l.19-.2Zm8.35,3.41a1.52,1.52,0,0,1,3-.19v2.61l5.83-5.83a1.52,1.52,0,0,1,2.27,2l-.12.13-5.82,5.83h2.41a1.52,1.52,0,0,1,.19,3H789.2a1.53,1.53,0,0,1-1.51-1.33v-6.28Z"/>
    <path id="entrance-5" data-name="entrance" d="M607.55,285.41a1.52,1.52,0,0,1,3-.29l0,.17.3,7.61a1.52,1.52,0,0,0,1.4,1.46h.18l18.25-.71a1.52,1.52,0,0,0,1.46-1.4v-.18l-.26-6.84a1.52,1.52,0,0,1,3-.3l0,.18.26,6.84a4.57,4.57,0,0,1-4.11,4.73h-.27l-18.26.71a4.56,4.56,0,0,1-4.72-4.12l0-.26Zm8.18-3.81a1.52,1.52,0,0,1,1.91-2.36l.15.13,1.77,1.64-.32-8.24a1.53,1.53,0,0,1,3-.3l0,.18.32,8.24,1.64-1.77A1.52,1.52,0,0,1,626.6,281l-.12.15-4.13,4.47a1.53,1.53,0,0,1-2,.21l-.15-.12Z"/>
    <g id="escalator">
      <g>
        <path d="M624.09,509.6h-7.75v54.89h1.15v-2.17h6.6v2.17h1.15V509.6h-1.15Zm-6.6.5h6.6v1.59h-6.6Zm6.6,3.68h-6.6v-1.59h6.6Zm0,2.09h-6.6v-1.59h6.6Zm0,2.09h-6.6v-1.59h6.6Zm0,2.08h-6.6v-1.58h6.6Zm0,2.09h-6.6v-1.59h6.6Zm0,2.09h-6.6v-1.59h6.6Zm0,2.09h-6.6v-1.59h6.6Zm0,2.09h-6.6v-1.59h6.6Zm0,2.09h-6.6V528.9h6.6Zm0,2.09h-6.6V531h6.6Zm0,2.09h-6.6v-1.59h6.6Zm0,2.09h-6.6v-1.59h6.6Zm0,2.09h-6.6v-1.59h6.6Zm0,2.08h-6.6v-1.58h6.6Zm0,2.09h-6.6v-1.59h6.6Zm0,2.09h-6.6v-1.59h6.6Zm0,2.09h-6.6v-1.59h6.6Zm0,2.09h-6.6V547.7h6.6Zm0,2.09h-6.6v-1.59h6.6Zm0,2.09h-6.6v-1.59h6.6Zm0,2.09h-6.6V554h6.6Zm0,2.09h-6.6v-1.59h6.6Zm0,2.08h-6.6v-1.58h6.6ZM617,564h-.15V510.1H617V564Zm.5-2.17v-1.59h6.6v1.59Zm7.25-51.72V564h-.15V510.1Z"/>
        <path d="M633.87,509.6h-8.25v54.89h1.15v-2.17h6.6v2.17h1.15V509.6Zm-7.1.5h6.6v1.59h-6.6Zm6.6,3.68h-6.6v-1.59h6.6Zm0,2.09h-6.6v-1.59h6.6Zm0,2.09h-6.6v-1.59h6.6Zm0,2.08h-6.6v-1.58h6.6Zm0,2.09h-6.6v-1.59h6.6Zm0,2.09h-6.6v-1.59h6.6Zm0,2.09h-6.6v-1.59h6.6Zm0,2.09h-6.6v-1.59h6.6Zm0,2.09h-6.6V528.9h6.6Zm0,2.09h-6.6V531h6.6Zm0,2.09h-6.6v-1.59h6.6Zm0,2.09h-6.6v-1.59h6.6Zm0,2.09h-6.6v-1.59h6.6Zm0,2.08h-6.6v-1.58h6.6Zm0,2.09h-6.6v-1.59h6.6Zm0,2.09h-6.6v-1.59h6.6Zm0,2.09h-6.6v-1.59h6.6Zm0,2.09h-6.6V547.7h6.6Zm0,2.09h-6.6v-1.59h6.6Zm0,2.09h-6.6v-1.59h6.6Zm0,2.09h-6.6V554h6.6Zm0,2.09h-6.6v-1.59h6.6Zm0,2.08h-6.6v-1.58h6.6Zm-7.1,4.26h-.15V510.1h.15V564Zm.5-2.17v-1.59h6.6v1.59ZM634,564h-.15V510.1H634Z"/>
        <path d="M623.06,567.11l-1.66,1.65V565a.61.61,0,0,0-.61-.61.61.61,0,0,0-.62.61v3.73l-1.66-1.65a.6.6,0,0,0-.87,0,.62.62,0,0,0,0,.87l2.71,2.71.44.43.43-.43,2.72-2.71a.62.62,0,0,0-.88-.87Z"/>
        <path d="M630.51,564.85l-.44-.43-.43.43-2.71,2.71a.62.62,0,0,0,.87.88l1.66-1.66v3.73a.61.61,0,0,0,.61.61.61.61,0,0,0,.62-.61v-3.73l1.66,1.66a.62.62,0,0,0,.87,0,.63.63,0,0,0,0-.88Z"/>
      </g>
      <g>
        <g>
          <path d="M614.43,530.31h14a8,8,0,0,1,8,8v12.32a0,0,0,0,1,0,0h-22a0,0,0,0,1,0,0V530.31A0,0,0,0,1,614.43,530.31Z" style="fill: #fff"/>
          <path d="M636.93,551.17h-23V529.81h14.45a8.55,8.55,0,0,1,8.55,8.54Zm-22-1h21V538.35a7.55,7.55,0,0,0-7.55-7.54H614.93Z"/>
        </g>
        <g>
          <path d="M621.56,547.62H618.1a1.61,1.61,0,0,1-1.46-1.63,1.56,1.56,0,0,1,1.46-1.58h2.36l8.84-6.64h3.46a1.56,1.56,0,0,1,1.46,1.58,1.65,1.65,0,0,1-1.46,1.67h-2.4Z" style="fill-rule: evenodd"/>
          <g>
            <ellipse cx="622.61" cy="534.98" rx="1.58" ry="1.63"/>
            <path d="M625.35,537.92a.36.36,0,0,0-.52,0l-1,.85a1.46,1.46,0,0,0-1.35-.94A1.5,1.5,0,0,0,621,539.3v2.84l4.27-3.69a.39.39,0,0,0,.05-.53Z" style="fill-rule: evenodd"/>
          </g>
        </g>
      </g>
    </g>
    <g id="escalator-2" data-name="escalator">
      <g>
        <path d="M873.92,668.56l.42-1.07-62.62-24.33-.23-.09-.42,1.07,2,.79-2.39,6.15-1.79-.69-.23-.09-.42,1.07,62.62,24.33.23.09.42-1.08h0l2.39-6.15Zm-37.44-7.46,1.19-3.08,1.2-3.08,1,.37.53.21-1.19,3.08-1.2,3.07-.75-.29Zm1.95.75,1.19-3.07,1.2-3.08.27.11,1.21.47-1.2,3.07-1.19,3.08-.22-.08Zm1.94.76,1.2-3.08,1.19-3.07,1.48.57-1.19,3.08-1.2,3.08-.81-.32Zm2,.76,1.2-3.08,1.19-3.08,1.48.58L845,660.87l-1.2,3.07-1.42-.55ZM854,660.81l-1.19,3.08-1.2,3.08-1.48-.58,1.19-3.07,1.2-3.08h0Zm-2-.75-1.19,3.07-1.2,3.08-1.48-.57,1.2-3.08,1.19-3.08.69.27Zm-1.94-.76-1.2,3.08-1.19,3.08-1.48-.58,1.19-3.08,1.2-3.07,1.36.53Zm-4.63,1.75,1.2-3.08,1.48.57-1.2,3.08-1.19,3.08-1.48-.58Zm6.6,6.1,1.19-3.08,1.2-3.07,1.48.57-1.2,3.08-1.19,3.07-.44-.17Zm6.28-4.64.12,0,1.36.53-1.19,3.08-1.2,3.08-1.48-.58,1.2-3.07Zm8.08,6.68-1.2,3.07-1.48-.57,1.2-3.08,1.19-3.08,1.48.58Zm-.76-3.84-1.19,3.08-1.2,3.08-1.48-.58,1.2-3.08,1.19-3.07.23.09Zm-7.76,4.07,1.19-3.08,1.2-3.08,1.48.58-1.19,3.08-1.2,3.07h0Zm2,.76L861,667.1l1.2-3.08,1.48.58-1.2,3.07-1.19,3.08-.61-.24Zm7.32,2.84L867,673l-1.31-.52,1.19-3.07,1.2-3.08,1.48.58-1.2,3.07Zm-9.29-10.69-1.2,3.07-1.2,3.08-1.48-.57,1.2-3.08,1.19-3.08.8.31Zm-19.48-7.57-1.19,3.08-1.2,3.08-1.26-.49-.22-.09,1.2-3.08,1.19-3.07,1.15.44Zm-23.34-2,1.2-3.08,1.19-3.08,1.48.58-1.19,3.07-1.2,3.08-1.47-.57Zm5.82-4.83-1.2,3.08-1.19,3.08-1.48-.58,1.19-3.07,1.2-3.08,1.31.51Zm-.44,6.91-1.49-.57,1.2-3.08,1.2-3.07,1.48.57-1.2,3.08Zm4.8-5.21,1.42.55.06,0-1.19,3.08-1.2,3.08-1.48-.58,1.19-3.07Zm-.44,6.91,1.19-3.08,1.2-3.08.74.29.74.29-1.2,3.08-1.19,3.07-.49-.18Zm1.94.76,1.2-3.08,1.19-3.08,1.49.58-1.2,3.07-1.2,3.08-1.09-.42Zm2,.75,1.2-3.08,1.19-3.07,1.48.57-1.19,3.08-1.2,3.08-1.06-.42Zm1.95.76,1.19-3.08,1.2-3.08.84.33.64.25-1.2,3.08-1.19,3.07h0Zm1.94.76,1.2-3.08,1.2-3.08.16.07,1.32.51-1.2,3.07-1.19,3.08-.66-.25ZM815.5,645.87l1.48.57-1.19,3.08-1.2,3.08-1.48-.58,1.2-3.08Zm5.4,9.18,1.2-3.08,1.19-3.08,1.48.58-1.19,3.07-1.2,3.08-.42-.16Zm48.22,18.73-.78-.3-.71-.28,1.2-3.08,1.2-3.07,1.15.45.33.12-1.2,3.08Zm-57.4-29.92,0-.14,61.92,24-.06.14-2.36-.92-1.53-.59h0l-2-.76h0l-1.94-.75h0l-2-.76h0l-1.95-.76h0l-2-.75h0l-1.94-.76h0l-.22-.09-1.73-.67h0l-.26-.1-1.69-.65h0l-1.94-.76h0l-2-.75h0L845,656.77l-.53-.2h0l-1.95-.76h0l-2-.76h0l-1.94-.75h0l-.14-.06-1.81-.7h0l-1.95-.76h0l-2-.75h0l-2.55-1-1.34-.52h0l-2-.75h0l-5-1.93-.87-.34h0l-1.95-.76h0L816,645.5l-.73-.28h0l-2-.76h0Zm1.84,1.25,1,.4.45.17-1.2,3.08-1.19,3.08-1.48-.58Zm57.27,30-61.92-24L809,651l13.2,5.12.51.2h0l1.94.76h0l5.45,2.11.4.16h0l25.26,9.82,0,0h0L870.88,675ZM869.58,674l1.2-3.08L872,667.8l1.32.52.16.06-2.39,6.15Z"/>
        <path d="M808.13,651.72l-.42,1.08,2,.78-2.39,6.16-1.79-.7-.23-.09L804.9,660l62.62,24.32.23.09.24-.61h0l2.57-6.62h0l.41-1.07-62.61-24.32Zm2.06,2,.84.33.65.25-1.2,3.08-1.2,3.07-1.48-.57Zm29.21,11.35.45.18,1,.4-1.19,3.07-1.2,3.08-.56-.22-.92-.35,1.2-3.08ZM839,672l1.19-3.08,1.2-3.07,1.48.57-1.19,3.08-1.2,3.08-1.15-.45Zm7.77-4.06-1.2,3.07-1.2,3.08-1.48-.58,1.2-3.07,1.19-3.08.73.28Zm-3.15,2.32-1.19,3.07-1.48-.57,1.19-3.08,1.2-3.08,1.48.58Zm3.9,1.51-1.2,3.08-.66-.26-.82-.32,1.2-3.08,1.19-3.07,1.48.57Zm-.73,3.26,1.19-3.08,1.2-3.08,1.14.45.34.13-1.2,3.08-1.19,3.07-1.26-.49Zm9.71-3.31-1.19,3.08-1.2,3.07-1.48-.57,1.19-3.08,1.2-3.08,1.41.55Zm9.74,3.78L865,678.6l-1.19,3.07-1.48-.57,1.19-3.08,1.2-3.08.39.16Zm-5.09,1.56-1.2,3.08-1.48-.57,1.2-3.08,1.19-3.08,1.48.58Zm3.14-2.32-1.2,3.08-1.19,3.08-1.48-.58,1.19-3.07,1.2-3.08,1,.4Zm-5.09,1.57L858,679.4l-.18-.07-1.3-.5,1.2-3.08,1.19-3.07,1.49.57Zm-7.32-2.85,1.19-3.07,1.48.57-1.19,3.08-1.2,3.08-1.48-.58Zm-.47-.18-1.19,3.08-1.48-.58,1.19-3.07,1.2-3.08,1.48.58Zm15.44,9.54-.59-.23,1.19-3.08,1.2-3.07,1.31.51.17.06-2.39,6.16Zm1.33-6.56L867,679.35l-1.2,3.08-.29-.11-1.19-.46,1.2-3.08,1.19-3.08.52.2Zm-9.73-3.79-1.2,3.08L856,678.65l-1.48-.58,1.19-3.07,1.2-3.08.77.3Zm-19.47-7.56-1.2,3.08-1.19,3.07-.07,0-1.42-.55,1.2-3.08,1.2-3.08,1.09.43Zm-26.8-10.41,1.15.45.33.13-1.19,3.07-1.2,3.08-1.48-.58,1.2-3.07Zm15.11,5.87-1.19,3.08-1.2,3.08-1.48-.58,1.2-3.08,1.19-3.07.56.21Zm-1.94-.76-1.2,3.08-1.19,3.08-1.49-.58,1.2-3.07,1.19-3.08,1.2.46Zm-3.43-1.33,1.48.58-1.2,3.08L821,665l-1.48-.57,1.19-3.08Zm-7,.81L816,656l1.48.58-1.2,3.08-1.19,3.07-1.48-.57Zm2.23,4.41-1.48-.58,1.2-3.07,1.19-3.08,1.48.58-1.19,3.07Zm-1.5-7.67-1.2,3.08L813.18,662l-1.48-.58,1.19-3.08,1.2-3.07.51.19Zm11.71,11.63,1.19-3.07,1.2-3.08,1.46.57h0L830,665l-1.19,3.08-.27-.1Zm5.81-4.82-1.19,3.08-1.2,3.07-.45-.17-1-.4,1.2-3.08,1.19-3.07.83.32ZM831.17,669l1.2-3.08,1.19-3.08.18.07,1.3.51-1.19,3.07-1.2,3.08-1-.41Zm5.82-4.83-1.2,3.08-1.19,3.08-1.48-.58,1.19-3.08,1.2-3.07,1,.37Zm-7.79-3-1.2,3.07-1.19,3.08-1.48-.57,1.19-3.08,1.2-3.08.18.07Zm-7.79-3-1.19,3.08-1.2,3.08-1.48-.58,1.2-3.08,1.19-3.07.87.33Zm46.05,25.67-61.91-24,.05-.14,22.29,8.66,1.15.45h0l2,.75h0l1.06.41.89.35h0l2.71,1,1.18.46h0l1.95.76h0l.83.32,1.11.43h0l2.69,1,1.21.47h0l2,.75h0l.6.24,1.34.52h0l2.66,1,1.24.48h0l1.94.76h0l1.95.76h0l2,.75h0l2,.76h0l1.94.76h0l2,.75h0l1.95.76h0l1.48.57Zm2.87-7.36-.06.14-2.92-1.14-1-.38h0l-2-.75h0l-5.12-2-.72-.28h0l-.73-.29-1.22-.47h0l-5.36-2.08-.48-.19h0l-2.69-1-1.2-.47h0l-1.95-.76h0L843,666h0l-2-.76h0l-1.94-.76h0l-.8-.31-1.15-.44h0l-.26-.1-1.69-.66h0l-1.94-.76h0l-1.95-.75h0l-2.46-1-1.44-.56h0l-1.94-.75h0l-2-.76h0l-2.2-.85-1.69-.66h0l-1.95-.76h0l-2-.75h0l-2-.76h0l-1.94-.76h0l-2-.75h0l-1.56-.61.06-.14Z"/>
        <path d="M805.49,648.89a.62.62,0,0,0,.81.32.61.61,0,0,0,.31-.81l-.94-2.15,3.48,1.35a.62.62,0,0,0,.79-.35.61.61,0,0,0-.35-.8l-3.48-1.35,2.15-1a.62.62,0,0,0,.32-.81.61.61,0,0,0-.81-.31l-3.51,1.54-.57.25.25.56Z"/>
        <path d="M806.58,655.9l-.25-.56-1.54-3.51a.63.63,0,0,0-.82-.32.62.62,0,0,0-.31.82l1,2.14-3.48-1.35a.62.62,0,0,0-.8.35.62.62,0,0,0,.35.8l3.48,1.35-2.15,1a.62.62,0,0,0-.31.81.62.62,0,0,0,.81.32l3.51-1.55Z"/>
      </g>
      <g>
        <g>
          <path d="M826.15,653.36h14a8,8,0,0,1,8,8v12.32a0,0,0,0,1,0,0h-22a0,0,0,0,1,0,0V653.36A0,0,0,0,1,826.15,653.36Z" style="fill: #fff"/>
          <path d="M848.65,674.23h-23V652.86H840.1a8.56,8.56,0,0,1,8.55,8.55Zm-22-1h21V661.41a7.56,7.56,0,0,0-7.55-7.55H826.65Z"/>
        </g>
        <g>
          <path d="M833.28,670.68h-3.46a1.61,1.61,0,0,1-1.46-1.63,1.56,1.56,0,0,1,1.46-1.58h2.36l8.84-6.65h3.46a1.57,1.57,0,0,1,1.46,1.59,1.65,1.65,0,0,1-1.46,1.67h-2.4Z" style="fill-rule: evenodd"/>
          <g>
            <ellipse cx="834.33" cy="658.03" rx="1.58" ry="1.63"/>
            <path d="M837.07,661a.35.35,0,0,0-.52-.05l-1,.84a1.46,1.46,0,0,0-1.35-.93,1.5,1.5,0,0,0-1.47,1.52v2.84l4.27-3.69a.39.39,0,0,0,.05-.53Z" style="fill-rule: evenodd"/>
          </g>
        </g>
      </g>
    </g>
    <g id="escalator-3" data-name="escalator">
      <g>
        <path d="M460.69,699.83,456,695.16l1.35-1.36.18-.17-.81-.82L409.15,740.2l-.17.18.46.46h0l.1.11.25.25h0l5,5h0l.46.46,47.61-47.39.17-.18-.81-.81Zm-23.9,14.49,1.13-1.13,2.33,2.34,2.33,2.34L441.45,719l-2.33-2.34Zm6.14,3.2-2.33-2.34-2.33-2.34,1.13-1.12,4.66,4.68-.65.65Zm11.49-11.44-1.13,1.12L451,704.86l-2.33-2.34,1.13-1.12,2.33,2.34Zm-6.14-3.2,2.33,2.34,2.33,2.34-1.13,1.12-2.33-2.34L447.15,704l.33-.32Zm3.18,6.15-1.13,1.12L448,707.81l-2.33-2.34,1.13-1.12,2.33,2.34Zm-6.14-3.2,2.33,2.33L450,710.5l-1.13,1.13-2.33-2.34L444.19,707l.32-.32ZM448.5,712l-1.13,1.12L445,710.76l-2.33-2.34,1.13-1.12,2.33,2.34Zm-6.14-3.21,2.33,2.34,2.33,2.34-1.13,1.12-2.33-2.34-2.33-2.34.31-.31Zm3.18,6.16-1.13,1.12-4.66-4.68,1.13-1.12,2.33,2.34Zm9.23-9.2-2.33-2.34-2.33-2.34,1.13-1.12,2.33,2.34,2.33,2.34Zm-3.17-6.15.77-.78.35-.34,2.33,2.34,2.33,2.34-1.13,1.12-2.33-2.34Zm1.48-1.48L454.2,697l4.66,4.68-1.13,1.12-2.33-2.34Zm-13.47,22.72-1.12,1.12-2.33-2.34-2.33-2.34,1.13-1.12,2.32,2.34Zm-3,2.95-1.12,1.12-4.66-4.68.41-.41.71-.71,2.33,2.34ZM413.1,737.9l.69-.69.44-.43,2.33,2.34,2.33,2.33-1.13,1.13-2.33-2.34Zm6.14,3.2-2.33-2.34-2.33-2.34,1.13-1.12,4.66,4.68-.18.18Zm-2.48-6.84.43-.43,2.33,2.34,2.33,2.34-1.13,1.12L416.07,735Zm12.63-12.58,1.12-1.12,4.66,4.68-1.12,1.12L431.72,724Zm2.82,6.51-1.12,1.12L428.76,727l-2.33-2.34,1.12-1.12,2.33,2.34Zm-3,2.95-1.12,1.12-2.33-2.34-2.33-2.34,1.12-1.12,2.33,2.34Zm-7.62-1.73,2.33,2.34,2.33,2.34-1.13,1.12-2.32-2.34-2.33-2.34Zm3.18,6.15-1.13,1.12-2.33-2.34L419,732l1.12-1.12,2.33,2.34ZM423.33,737l-1.13,1.12-2.33-2.34-2.32-2.34,1.12-1.12,2.33,2.34Zm3.31-3.3-2.32-2.34L422,729.05l1.12-1.12,2.33,2.34,2.33,2.34-.75.75Zm3-2.94-2.33-2.34L425,726.11l1.12-1.13,2.33,2.34,2.33,2.34-.75.75Zm3-2.95-2.33-2.34-2.33-2.34L429,722l2.33,2.34,2.33,2.34-.74.74Zm-20.95,11.53,1.13-1.12,2.33,2.34,2.33,2.34-1.13,1.12L414,741.71Zm25.39-16-2.33-2.34-2.33-2.34,1.13-1.12L435.8,720l2.33,2.33-.28.29Zm3-2.95-2.33-2.34-2.33-2.34,1.13-1.12,2.33,2.34,2.32,2.34-.28.28Zm20.37-20.28-1.13,1.12-4.65-4.68,1.12-1.12Zm-50.66,40.19,47.08-46.86.1.1-1.18,1.18h0l-.19.2-10.43,10.37-.09.1h0l-2.68,2.66-.28.29h0l-2.48,2.47-.49.48h0l-.22.22-1.26,1.25h0l-1.48,1.47h0l0,0-1.45,1.44h0l-1.48,1.47h0l-1.48,1.47h0l-7.3,7.26-.1.1h0l-2.67,2.66-.29.29h0l-2.48,2.47-.48.48h0l-.22.22-1.26,1.25h0L415.36,735h0l0,0-1.45,1.44h0l-1.48,1.48h0l-1.48,1.47h0l-1.13,1.12Zm1.15-.22.44-.44,2.33,2.34,2.33,2.34-1.13,1.12-4.66-4.68Zm4.43,5.82-.11-.1,2.77-2.76.2-.19h0l.51-.51,1-1h0l16.28-16.21h0l.7-.7.78-.77h0l.73-.73.75-.74h0l.51-.51,1-1h0l1.48-1.47h0l.32-.32,1.16-1.15h0l13.32-13.25h0l.7-.7.78-.77h0l.72-.72.76-.76h0l.5-.5,1-1h0l1.18-1.18.11.11Z"/>
        <path d="M456.32,692.72l.17-.18-.81-.81-1.54,1.53-4.65-4.68,1.36-1.36.17-.17-.81-.82-47.61,47.4-.17.17.81.82h0l4.66,4.68h0l.14.15.21.2h0l.46.46Zm-4,2.36-1.13,1.12-2.33-2.34-2.32-2.34,1.12-1.12,2.33,2.34Zm-23.69,23.58-1.12,1.12-2.33-2.34-2.33-2.33L424,714l2.33,2.34Zm-2.22,2.22-.38.38-2.33-2.34-2.33-2.34,1.12-1.12,2.33,2.34,2.33,2.34Zm-3,3-.37.38-2.33-2.34-2.33-2.34,1.12-1.12,2.33,2.33,2.33,2.34Zm-16.88,7.49.69-.69.44-.43,2.33,2.34,2.33,2.33L411.21,736l-2.33-2.34Zm12.34-7.63,2.33,2.34-1.13,1.12-2.32-2.34-2.33-2.34,1.12-1.12Zm-1.48,1.48,2.33,2.34-1.13,1.12-2.33-2.34L414,724l1.12-1.12Zm-1.48,1.47,2.33,2.34-1.13,1.12-2.33-2.34-2.32-2.34,1.12-1.12Zm-1.48,1.47,2.33,2.34-1.13,1.12-2.33-2.33L411,726.9l1.13-1.13Zm-3.81-.86,2.33,2.34,2.33,2.34-1.13,1.12-4.66-4.68Zm3.18,6.15-1.13,1.12-2.33-2.34L408,729.84l1.13-1.12Zm7.76-7.72-2.33-2.34L416.92,721l1.12-1.12,2.33,2.34,2.33,2.34-.17.17Zm-1.7-7.63,1.12-1.12,2.33,2.34,2.33,2.34-1.12,1.12-2.33-2.34Zm10.85-6.15,2.33,2.34-1.12,1.12L429.61,713l-2.33-2.34,1.13-1.12Zm-4.93.26,1.13-1.12,2.32,2.34,2.33,2.34-1.12,1.12-2.33-2.34Zm7.62,1.73-2.33-2.34-2.33-2.34,1.13-1.12,2.33,2.34,2.32,2.34-.28.28Zm-3.18-6.15,1.13-1.13L433.7,709l2.32,2.34-1.12,1.12-2.33-2.33Zm6.14,3.2-2.33-2.34-2.33-2.34,1.13-1.12,2.33,2.34,2.32,2.34-.27.28Zm11.49-11.44-1.13,1.12-2.33-2.34L442.08,696l1.13-1.13,2.33,2.34Zm-5.29.61,2.33,2.34-1.13,1.12-2.33-2.34-2.33-2.34,1.13-1.12Zm-1.48,1.47,2.33,2.34-1.13,1.13L440,702.71l-2.33-2.34,1.13-1.12Zm-1.48,1.48L442,705.4l-1.13,1.12-2.33-2.34-2.33-2.34,1.13-1.12Zm-1.48,1.47,2.33,2.34L439.34,708,437,705.65l-2.33-2.34,1.13-1.12Zm-4.94.26,1.13-1.12,2.33,2.34,2.33,2.34-1.13,1.12-2.33-2.34Zm12.06-2.69-2.33-2.34-2.33-2.34,1.13-1.12,2.33,2.34,2.33,2.34-.64.63Zm3-3-2.33-2.34-2.33-2.34,1.13-1.12,2.33,2.34,2.33,2.34ZM445,693l1.13-1.12,2.33,2.34,2.33,2.34-1.13,1.12-2.33-2.34Zm-40,39.79,1.13-1.12,2.33,2.34,2.33,2.34-1.13,1.12-2.33-2.34ZM429,718.31,426.65,716l-2.33-2.34,1.13-1.12,2.32,2.34,2.33,2.34-.73.73Zm24.81-24.7-1.13,1.12-2.33-2.34L448,690.05l1.12-1.12Zm-3.58-6.67.1.11-1.18,1.17h0l-1.83,1.83h0l-1.48,1.47h0L444.34,693h0l-1.48,1.47h0l-1.48,1.47h0l-1.48,1.48h0l-1.48,1.47h0l-1.49,1.47h0l-1.48,1.48h0L434,703.31h0l-1.48,1.48h0l-.22.22L431,706.26h0l-1.48,1.47h0l0,0-1.45,1.44h0l-1.48,1.47h0l-1.48,1.48h0l-1.48,1.47h0l-1.48,1.47h0l-1.48,1.48h0l-1.48,1.47h0l-1.48,1.47h0L416.21,721h0l-1.48,1.47h0L413.25,724h0l-1.48,1.47h0l-1.48,1.47h0L409.16,728l-.38.38-1.45,1.44h0l-1.48,1.48h0l-1.48,1.47h0l-1.13,1.12-.11-.11Zm-45.93,46.64.44-.44,2.33,2.34,2.33,2.34-1.13,1.12-4.66-4.67Zm5.8,4.24,1.48-1.47h0l1.49-1.47h0l1.48-1.48h0l1.48-1.47h0l1.48-1.47h0L419,729h0l1.48-1.47h0l1.48-1.48h0l1.48-1.47h0l2.28-2.28.68-.67h0l1.35-1.34.13-.13h0l.7-.7.78-.78h0l.89-.88.59-.59h0l.59-.58.89-.89h0l1.48-1.48h0l1.48-1.47h0l1.48-1.47h0l1.48-1.48h0l1.48-1.47h0l1.48-1.48h0l1.48-1.47h0l1.48-1.47h0l1.48-1.48h0l1.48-1.47h0l2.79-2.78.18-.17h0l.55-.55.93-.92h0l.29-.3,1.19-1.18h0l.44-.44,1-1h0l1.18-1.18.11.11-47.08,46.87-.11-.11,1.48-1.48Z"/>
        <path d="M464,691.28h-3.84a.61.61,0,0,0-.62.61.62.62,0,0,0,.62.62h2.34l-2.64,2.64a.62.62,0,1,0,.87.87l2.64-2.63v2.34a.62.62,0,1,0,1.23,0v-4.45Z"/>
        <path d="M457.75,689.45a.62.62,0,0,0,.62-.62.61.61,0,0,0-.62-.61h-2.34l2.64-2.63a.62.62,0,0,0-.87-.88l-2.64,2.64V685a.65.65,0,0,0-.18-.44.6.6,0,0,0-.43-.18.62.62,0,0,0-.62.62v4.45h4.45Z"/>
      </g>
      <g>
        <g>
          <path d="M422.69,705.17h14a8,8,0,0,1,8,8v12.32a0,0,0,0,1,0,0h-22a0,0,0,0,1,0,0V705.17A0,0,0,0,1,422.69,705.17Z" style="fill: #fff"/>
          <path d="M445.19,726h-23V704.67h14.45a8.56,8.56,0,0,1,8.55,8.55Zm-22-1h21V713.22a7.56,7.56,0,0,0-7.55-7.55H423.19Z"/>
        </g>
        <g>
          <path d="M429.82,722.49h-3.46a1.61,1.61,0,0,1-1.46-1.63,1.56,1.56,0,0,1,1.46-1.58h2.36l8.84-6.65H441a1.57,1.57,0,0,1,1.46,1.59,1.65,1.65,0,0,1-1.46,1.67h-2.4Z" style="fill-rule: evenodd"/>
          <g>
            <ellipse cx="430.87" cy="709.84" rx="1.58" ry="1.63"/>
            <path d="M433.61,712.79a.35.35,0,0,0-.52,0l-1,.84a1.46,1.46,0,0,0-1.35-.93,1.5,1.5,0,0,0-1.47,1.52V717l4.27-3.69a.39.39,0,0,0,.05-.53Z" style="fill-rule: evenodd"/>
          </g>
        </g>
      </g>
    </g>
    <g id="escalator-4" data-name="escalator">
      <g>
        <path d="M422.15,758.55l-4.67-4.67,1.54-1.53-.82-.81-38.85,38.77.46.46h0l5,5h0l.82.81,38.85-38.77-.81-.82Zm-.36.36L420.67,760l-2.33-2.34L416,755.36l1.12-1.13Zm-36,31.24-2.33-2.33,1.13-1.12,2.33,2.33,2.33,2.34-1.12,1.12Zm2,2.69-.47.47-.65.66-2.33-2.34L382,789.29l.66-.65.47-.47,2.33,2.34Zm-.5-4.16L385,786.34l1.13-1.12,2.33,2.34,2.33,2.33L389.61,791Zm1.48-1.48-2.33-2.33,1-1,.1-.1,2.33,2.34,2.33,2.34-1.13,1.12Zm1.48-1.47-2.33-2.34,1.12-1.12,2.34,2.34,2.33,2.33-.28.28-.85.84Zm1.48-1.48-2.33-2.33.61-.61.51-.52,2.33,2.34,2.34,2.34-1,1-.09.09Zm1.48-1.47-2.33-2.34,1.12-1.12,2.33,2.33,2.33,2.34-1.12,1.12Zm1.48-1.48L392.35,779l1.12-1.12,2.33,2.34,2.33,2.34L397,783.64Zm1.48-1.47-2.34-2.34,1.13-1.12,2.33,2.33,2.33,2.34-.65.66-.47.46Zm1.47-1.48L395.3,776l.8-.79.33-.33,2.33,2.34,2.33,2.33L400,780.69Zm1.48-1.47-2.33-2.34,1.13-1.12,2.33,2.33,2.33,2.34-.81.81-.32.31Zm1.48-1.48-2.33-2.34,1.13-1.12,2.33,2.34,2.33,2.33-1.13,1.13Zm1.48-1.48-2.33-2.33,1.12-1.12,2.34,2.33,2.33,2.34-1.13,1.12Zm1.48-1.47-2.33-2.34.42-.42.7-.7,2.33,2.34,2.34,2.33-.71.7-.42.43ZM405,771l-2.33-2.33,1.12-1.13,2.33,2.34,2.33,2.34-1.12,1.12Zm1.48-1.47-2.33-2.34L405.3,766l2.33,2.34,2.33,2.33-1.12,1.12ZM408,768l-2.34-2.33,1.13-1.13,2.33,2.34,2.33,2.34-1.12,1.12Zm1.47-1.47-2.33-2.34,1.13-1.12,2.33,2.33,2.33,2.34-.51.51-.61.61Zm1.48-1.48-2.33-2.34.38-.37.75-.75,2.33,2.34,2.33,2.34-1.13,1.12Zm1.48-1.47-2.33-2.34,1.13-1.12,2.33,2.33,2.33,2.34-.84.84-.29.28Zm1.48-1.48-2.33-2.34,1.12-1.12L415,761l2.33,2.33-1.13,1.13Zm1.48-1.48-2.33-2.33,1.12-1.12,2.33,2.33,2.34,2.34L417.71,763Zm1.48-1.47-2.33-2.34.56-.56.56-.56,2.33,2.34,2.33,2.33-.55.56-.57.57Zm-36.8,31.14,38.14-38.07.11.11-1.18,1.18h0l-1.07,1.06-.41.41-1.48,1.48h0L412.69,758h0l-1.24,1.24-.23.24h0l-.3.29-2.2,2.19-.46.47h0l-1.48,1.48h0l-1.48,1.47h0l-1,1-.45.45-.08.08L401,769.62l-.14.14h0l-1.2,1.2-.27.27h0l-.26.26-2.91,2.9L395,775.66h0l-1.48,1.48h0l-1,1-.49.49,0,0-2.84,2.84-.08.07h0l-1.16,1.16-.31.32h0l-1.22,1.21-.26.26h0l-.78.78-3.66,3.65h0l-.95.95-.53.53Zm.45.46,1.13-1.12L384,792l2.33,2.34-1.12,1.12Zm5.13,5.13-.11-.1.53-.53.7-.7,1.38-1.37h0l1.47-1.48h0l1.06-1.05.42-.42.11-.11,2.67-2.67.18-.17h0l1.48-1.48h0l1.48-1.47h0l.84-.85.8-.79,1.32-1.32h0l1.47-1.47h0l1-1,.46-.47.07-.06,3.38-3.38,1-1h0l1.48-1.48h0l.8-.8,3.63-3.63h0l1-1,.5-.5.15-.15,1.33-1.33h0l.59-.58,3.85-3.84h0l.76-.76,2.25-2.25.11.11Z"/>
        <path d="M417.12,750.45,415.59,752l-4.66-4.67,1.35-1.36.18-.17-.81-.82-38.86,38.77.46.47h0l5,5h0l.81.82,38.86-38.77Zm-1.88,1.89-.23.22-.9.9-2.33-2.34-2.33-2.34.52-.51.6-.61Zm-36,31.24-2.34-2.33,1-1,.15-.16,2.33,2.34,2.33,2.34-.14.14-1,1Zm2,2.69-1.12,1.12-2.33-2.33-2.33-2.34,1.12-1.12,2.33,2.34Zm-.49-4.16-2.34-2.34.34-.34.79-.78,2.33,2.33,2.33,2.34-1.12,1.12Zm1.47-1.48-2.33-2.33,1.13-1.13,2.33,2.34,2.33,2.34L384.54,783Zm1.48-1.47-2.33-2.34,1.13-1.12,2.33,2.33,2.33,2.34L386,781.49Zm1.48-1.48-2.33-2.34,1.12-1.12,2.34,2.34,2.33,2.33-.52.52-.61.61Zm1.48-1.47-2.33-2.34.9-.9.22-.22,2.34,2.33,2.33,2.34L389,778.54Zm1.48-1.48-2.33-2.34,1.12-1.12,2.33,2.34,2.34,2.33-1.13,1.13Zm1.48-1.48-2.33-2.33,1.12-1.13,2.33,2.34,2.33,2.34-1.12,1.12Zm1.48-1.47-2.34-2.34,1.13-1.12,4.66,4.67-.32.33-.8.8Zm-.86-3.81,4.09-4.08,4.66,4.68-4.08,4.07Zm4.44-4.43,1.12-1.12,2.34,2.33,2.33,2.34-1.13,1.12Zm3.81.86-2.33-2.34,1.12-1.12,2.34,2.34,2.33,2.34-.38.37-.75.75Zm1.48-1.47-2.33-2.34,1-1,.12-.12,2.33,2.33,2.34,2.34-1.13,1.12Zm1.48-1.48-2.33-2.34.4-.4.72-.72,2.33,2.34,2.33,2.33-1.12,1.13Zm1.48-1.48-2.34-2.33,1.13-1.12,2.33,2.33,2.33,2.34-1.12,1.12Zm1.47-1.47-2.33-2.34,1.13-1.12,2.33,2.34,2.33,2.33-.5.5-.62.63Zm1.48-1.48-2.33-2.33.61-.61.52-.52L407,755.9l2.33,2.34-1.12,1.12Zm1.48-1.47L405,753.21l1.13-1.12,2.33,2.34,2.33,2.33-1.13,1.12Zm1.48-1.48-2.33-2.33,1.12-1.13L410,753l2.33,2.34-1.13,1.12Zm1.48-1.47L408,750.26l1.12-1.12,2.33,2.33,2.34,2.34-1.13,1.12Zm-36.8,31.14,38.15-38.07.1.11L410.57,747h0l-1.48,1.47h0l-1.48,1.48h0l-1.47,1.47h0l-1.48,1.48h0l-1.48,1.47h0l-1.48,1.48h0l-1.48,1.47h0l-1.48,1.48h0l-1.48,1.47h0l-1.48,1.48h0L394,763.54h0l-4.08,4.07h0l-1.48,1.48h0l-1.48,1.47h0L385.45,772l0,0h0L384,773.51h0L382.48,775h0L381,776.44l0,0h0l-.49.48L378,779.42l-1.48,1.47h0l-1.48,1.48h0l-1,1-.51.51Zm.46.46,1.12-1.13,2.33,2.34,2.34,2.34-1.13,1.12Zm5,5,.53-.52,3.56-3.55h0l1.05-1,.43-.42.1-.11,3.28-3.27,1.05-1h0l1.48-1.48h0l.84-.84L395,773.2l.2-.21,7-7h0l.8-.8,5-5,.1-.09h0l1.47-1.48h0l.59-.59,6.86-6.84.11.11-38.15,38.06Z"/>
        <path d="M425.43,750h-3.84a.61.61,0,0,0-.61.61.61.61,0,0,0,.61.62h2.35l-2.64,2.64a.62.62,0,1,0,.87.87l2.64-2.64v2.35a.61.61,0,0,0,.61.62.62.62,0,0,0,.62-.62V750Z"/>
      </g>
      <g>
        <g>
          <path d="M388.6,760.61h14a8,8,0,0,1,8,8V781a0,0,0,0,1,0,0h-22a0,0,0,0,1,0,0V760.61A0,0,0,0,1,388.6,760.61Z" style="fill: #fff"/>
          <path d="M411.09,781.47h-23V760.11h14.45a8.55,8.55,0,0,1,8.54,8.54Zm-22-1h21V768.65a7.55,7.55,0,0,0-7.54-7.54H389.1Z"/>
        </g>
        <g>
          <path d="M395.73,777.92h-3.46a1.62,1.62,0,0,1-1.47-1.63,1.57,1.57,0,0,1,1.47-1.58h2.35l8.84-6.64h3.46a1.57,1.57,0,0,1,1.47,1.58,1.66,1.66,0,0,1-1.47,1.67h-2.4Z" style="fill-rule: evenodd"/>
          <g>
            <ellipse cx="396.78" cy="765.28" rx="1.58" ry="1.63"/>
            <path d="M399.51,768.22a.36.36,0,0,0-.52-.05l-1,.85a1.46,1.46,0,0,0-2.82.58v2.84l4.26-3.69a.38.38,0,0,0,.05-.53Z" style="fill-rule: evenodd"/>
          </g>
        </g>
      </g>
    </g>
    <g id="lift">
      <path d="M644.92,530.81a1,1,0,1,0-1-1A1,1,0,0,0,644.92,530.81Z"/>
      <path d="M651.29,530.81a1,1,0,1,0-1-1A1,1,0,0,0,651.29,530.81Z"/>
      <path d="M641.26,543h13.68a1.91,1.91,0,0,0,1.9-1.91V526.46a1.9,1.9,0,0,0-1.9-1.9H641.26a1.9,1.9,0,0,0-1.9,1.9V541.1A1.91,1.91,0,0,0,641.26,543Zm3.43-1.2a.25.25,0,0,0,0-.07l.21-4.78.21,4.78s0,0,0,.07Zm6.37,0s0,0,0-.07l.21-4.78.21,4.78s0,0,0,.07Zm-10.5-15.35a.71.71,0,0,1,.7-.7h13.68a.7.7,0,0,1,.7.7V541.1h0a.7.7,0,0,1-.7.71h-2.4s0,0,0-.07l.2-7.78.2,2.09a.41.41,0,1,0,.81,0v-3.44c0-1.43-1.74-1.5-2.48-1.5s-2.49.07-2.49,1.5V536a.41.41,0,0,0,.39.43.42.42,0,0,0,.43-.39l.19-2.09.21,7.78s0,0,0,.07h-3.86a.25.25,0,0,0,0-.07l.21-7.78.19,2.09a.41.41,0,1,0,.81,0v-3.44c0-1.43-1.74-1.5-2.48-1.5s-2.48.07-2.48,1.5V536a.4.4,0,0,0,.38.43.41.41,0,0,0,.43-.39l.19-2.09.21,7.78s0,0,0,.07h-2.4a.71.71,0,0,1-.7-.71Z"/>
      <path d="M649.59,521.42,651,520v3.21a.53.53,0,0,0,1.06,0V520l1.43,1.42a.51.51,0,0,0,.38.16.5.5,0,0,0,.37-.16.53.53,0,0,0,0-.75l-2.33-2.33-.38-.38-.37.38-2.34,2.33a.53.53,0,0,0,.75.75Z"/>
      <path d="M644.52,523.58l.38.38.38-.38,2.33-2.33a.53.53,0,0,0-.75-.75l-1.43,1.43v-3.22a.53.53,0,0,0-1.06,0v3.22l-1.43-1.43a.53.53,0,0,0-.75.75Z"/>
      <path d="M637.41,510.07V550.9h21.38V510.07Zm20.38,39.83H638.41V511.07h19.38Z"/>
    </g>
  </g>
</svg>
