<svg xmlns="http://www.w3.org/2000/svg" viewBox="0 0 1330 985.5">
  <title>Mapa_podkres</title>
  <g id="Cesty">
    <g>
      <path d="M1497.1,622a14.35,14.35,0,0,0-19.53,5.55L1343.09,868.83c-145.49-173.2-293.23-415.9-450.68-740.38l326.36,114.37,316,106.74a14.36,14.36,0,1,0,10.5-26.74L1229,216l-.5-.18L871.18,90.57A14.32,14.32,0,0,0,866.7,89L770.06,55.13a278.65,278.65,0,0,0-72.27-15l-223.74-16a279.61,279.61,0,0,0-54.57,1.48l-14,1.76a251.1,251.1,0,0,1-47,1.45l-231-14.67h-.2L-159.47,0a14.39,14.39,0,0,0-15.06,13.63,14.38,14.38,0,0,0,13.64,15.06L125.82,42.92h.11a10.32,10.32,0,0,1,7.79,4.21l4.13,5.66a10.29,10.29,0,0,1,1.94,7L70.52,854.16l-229-19.68a14.37,14.37,0,0,0-15.92,12.62A14.35,14.35,0,0,0-161.83,863L68,882.79l-4.8,55.08L-147.71,931a14.37,14.37,0,0,0-14.64,14.08,14.35,14.35,0,0,0,14.07,14.64l1292.28,28L1234.64,1237a14.37,14.37,0,0,0,27-9.82l-88.47-243.27,153.07-35.51.16,0c.42-.11.83-.22,1.23-.36l.08,0c.41-.15.82-.32,1.22-.5l.28-.13c.4-.19.79-.4,1.18-.63l0,0c.38-.23.76-.48,1.12-.75l.15-.11c.37-.29.73-.58,1.08-.91h0a11.22,11.22,0,0,0,1-1l.13-.14c.3-.35.58-.71.85-1.09a1,1,0,0,1,.08-.11c.23-.33.44-.68.65-1l.1-.17,167.12-299.8A14.37,14.37,0,0,0,1497.1,622ZM168.41,62.26a38.94,38.94,0,0,0-2.23-16.78l190.53,12.1A279.06,279.06,0,0,0,409.12,56l13.95-1.75A250.15,250.15,0,0,1,472,52.88L695.75,68.83a249.34,249.34,0,0,1,64.81,13.41L854,115c80.33,167.22,156.1,309.7,231.53,435.37,82.41,137.3,161.85,250.36,242.6,345.27l-11,19.76a477.35,477.35,0,0,0-109.25-36.6c-42-8.78-88-13.06-136.75-12.75L526,855.77H99.21ZM96.7,884.49H525.56l545.22,10.29h.37c78-.55,147.66,11.27,207.58,35.13l-126.1,29.25L92,938.44Z" style="fill: #fff"/>
      <path d="M1248.14,1246.93a14.9,14.9,0,0,1-14-9.79l-90.52-248.93-1291.94-28a14.76,14.76,0,0,1-10.42-4.55,14.79,14.79,0,0,1-4.14-10.6,14.91,14.91,0,0,1,14.91-14.57h.23l210.47,6.86,4.72-54.12-229.35-19.73a14.76,14.76,0,0,1-10-5.53A14.76,14.76,0,0,1-174.94,847,14.88,14.88,0,0,1-158.48,834L70.06,853.62,139.3,59.72a9.81,9.81,0,0,0-1.86-6.64l-4.13-5.65a9.78,9.78,0,0,0-7.4-4h-.12L-160.92,29.2a14.76,14.76,0,0,1-10.28-4.86A14.78,14.78,0,0,1-175,13.63,14.89,14.89,0,0,1-159.45-.48l286.8,14.21.11.51,0-.5L358.56,28.41A250.17,250.17,0,0,0,405.47,27l13.95-1.76a279.75,279.75,0,0,1,54.66-1.47l223.75,16a279.06,279.06,0,0,1,72.39,15l96.64,33.87a14.7,14.7,0,0,1,4.56,1.6l357.26,125.2.52.19,316.25,106.83A14.86,14.86,0,1,1,1534.61,350l-316-106.73-325.22-114C1050.62,453.22,1197.69,694.83,1343,868l134.12-240.61a14.86,14.86,0,1,1,26,14.47L1336,941.62l-.07.12c-.24.41-.46.77-.7,1.11l-.49-.17.41.29a12.55,12.55,0,0,1-.89,1.13l-.07.09c-.37.41-.68.73-1,1l-.11.1a13.51,13.51,0,0,1-1.08.91l-.1.07a14.51,14.51,0,0,1-1.21.82,11.89,11.89,0,0,1-1.26.67l-.28.14c-.42.18-.84.36-1.27.51a13.74,13.74,0,0,1-1.35.39l-.17.05-152.51,35.38L1262.11,1227a14.86,14.86,0,0,1-8.89,19A15,15,0,0,1,1248.14,1246.93ZM-147.94,931.5a13.91,13.91,0,0,0-13.91,13.59A13.77,13.77,0,0,0-158,955a13.76,13.76,0,0,0,9.72,4.25l1292.63,28,.11.32,90.64,249.25a13.91,13.91,0,0,0,13,9.13,13.88,13.88,0,0,0,13-18.61l-88.66-243.8.55-.13,153.07-35.5.16,0c.39-.1.79-.21,1.18-.34a11.76,11.76,0,0,0,1.26-.51l.26-.12a12.38,12.38,0,0,0,1.14-.6c.4-.25.76-.49,1.11-.75l.15-.11c.35-.27.68-.54,1-.81h0l.06-.07a12.09,12.09,0,0,0,.93-.95l.12-.13c.29-.34.57-.69.83-1.06l.48.18-.41-.29c.22-.32.43-.65.62-1l.07-.1,167.15-299.87A13.86,13.86,0,1,0,1478,627.83L1343.18,869.71l-.47-.56C1197,695.73,1049.59,453.52,892,128.67l-.53-1.09,1.15.4,326.35,114.37,316,106.73a13.86,13.86,0,1,0,10.16-25.79L1228.86,216.46l-.51-.19L871,91a14.61,14.61,0,0,0-4.41-1.55L769.89,55.61a278,278,0,0,0-72.13-14.94L474,24.72a278.49,278.49,0,0,0-54.46,1.48L405.6,28a251.37,251.37,0,0,1-47.1,1.46L127.35,14.73-159.49.52A13.9,13.9,0,0,0-174,13.67a13.89,13.89,0,0,0,13.16,14.54L126,42.42a10.76,10.76,0,0,1,8.16,4.42l4.13,5.65a10.76,10.76,0,0,1,2,7.32L71,854.7l-.5,0-229-19.68a13.89,13.89,0,0,0-15.38,12.18,13.74,13.74,0,0,0,2.91,10.2,13.79,13.79,0,0,0,9.27,5.16L68.56,882.33l-4.89,56.06-.47,0-210.93-6.87Zm1300.62,28.16h-.06L91.45,938.92,96.25,884H525.56l545.23,10.29h.35c77.87-.52,147.8,11.28,207.78,35.16l1.48.59ZM92.54,938l1060,20.71,124.48-28.88c-59.52-23.43-128.77-35-205.91-34.5h-.38L525.55,885H97.16Zm1224.8-21.9-.42-.2a477,477,0,0,0-109.13-36.56c-41.91-8.76-87.88-13-136.64-12.74L526,856.27H98.66l0-.54,69.2-793.5.5,0-.5,0a38.65,38.65,0,0,0-2.2-16.57l-.26-.72.76,0,190.53,12.1a278.94,278.94,0,0,0,52.32-1.62L423,53.7a250.32,250.32,0,0,1,49-1.32L695.78,68.33a250.34,250.34,0,0,1,64.94,13.44l93.67,32.82.09.19C934.82,282,1010.55,424.44,1086,550.12c82.44,137.35,161.78,250.27,242.55,345.2l.22.26Zm-241.19-50.51c47,0,91.3,4.29,131.85,12.78a478.35,478.35,0,0,1,108.93,36.42l10.61-19c-80.72-94.92-160-207.79-242.41-345.07C1009.71,425,934,282.61,853.66,115.4L760.39,82.71a249.59,249.59,0,0,0-64.68-13.39L472,53.37a249.81,249.81,0,0,0-48.83,1.32l-14,1.76a278.33,278.33,0,0,1-52.5,1.62L166.9,46a39.88,39.88,0,0,1,2,16.28l-69.16,793H526l545.17,10.28Z" style="fill: #e7e8eb"/>
    </g>
    <g>
      <path d="M623.55,879.48l.25-15.91,3.51,0a8,8,0,0,1,3.33.66,3.92,3.92,0,0,1,1.79,1.71,5.19,5.19,0,0,1,.52,2.47,5.07,5.07,0,0,1-1.54,3.88,6.34,6.34,0,0,1-4.48,1.31l-.84,0-.1,5.89Zm2.57-8H627a4.06,4.06,0,0,0,2.17-.42,2.26,2.26,0,0,0,1-1.11,3.61,3.61,0,0,0,.28-1.29,3.44,3.44,0,0,0-.26-1.41,2.26,2.26,0,0,0-1-1.08,3.79,3.79,0,0,0-1.94-.44l-1.12,0Z" style="fill: #c2c2c2"/>
      <path d="M638.35,879.94a5,5,0,0,1-2.44-.67,4.75,4.75,0,0,1-1.81-1.83,5.42,5.42,0,0,1-.64-2.8,5.84,5.84,0,0,1,.64-2.72,4.41,4.41,0,0,1,1.71-1.79,5,5,0,0,1,2.62-.61,4.24,4.24,0,0,1,1.66.34,4.7,4.7,0,0,1,1.24.78,2.48,2.48,0,0,1,.67.87l.07-1.67,2.23,0-.16,9.94-2.21,0,0-1.76a2.68,2.68,0,0,1-.74.92,4.13,4.13,0,0,1-1.23.73A4.09,4.09,0,0,1,638.35,879.94Zm.42-2a2.91,2.91,0,0,0,1.47-.35,2.82,2.82,0,0,0,1.08-1.06,3.25,3.25,0,0,0,.43-1.64v-.15a3.41,3.41,0,0,0-.37-1.7,3,3,0,0,0-1-1.15,2.79,2.79,0,0,0-1.45-.42,2.55,2.55,0,0,0-2.19.9,3.54,3.54,0,0,0-.76,2.28,3.66,3.66,0,0,0,.68,2.33A2.58,2.58,0,0,0,638.77,878Z" style="fill: #c2c2c2"/>
      <path d="M647,879.86l.26-15.92,2.32,0-.26,15.92Z" style="fill: #c2c2c2"/>
      <path d="M656.63,880.23a5,5,0,0,1-2.45-.67,4.84,4.84,0,0,1-1.8-1.82,5.36,5.36,0,0,1-.65-2.81,6,6,0,0,1,.64-2.72,4.37,4.37,0,0,1,1.72-1.79,5.1,5.1,0,0,1,2.62-.61,4.37,4.37,0,0,1,1.65.34,4.7,4.7,0,0,1,1.24.78,2.37,2.37,0,0,1,.67.87l.07-1.67,2.23,0-.16,9.94-2.21,0v-1.75a3,3,0,0,1-.74.92,4.3,4.3,0,0,1-1.24.72A4.07,4.07,0,0,1,656.63,880.23Zm.42-1.94a2.88,2.88,0,0,0,2.55-1.41,3.3,3.3,0,0,0,.42-1.64v-.15a3.48,3.48,0,0,0-.37-1.71,3,3,0,0,0-1-1.14,2.74,2.74,0,0,0-1.46-.43,2.63,2.63,0,0,0-2.19.9,4,4,0,0,0-.07,4.61A2.59,2.59,0,0,0,657.05,878.29Z" style="fill: #c2c2c2"/>
      <path d="M670,880.45a5.43,5.43,0,0,1-2.62-.68,4.7,4.7,0,0,1-1.86-1.84,5.49,5.49,0,0,1-.66-2.87,5.62,5.62,0,0,1,.68-2.7,4.47,4.47,0,0,1,1.83-1.75A5.55,5.55,0,0,1,670,870a5.47,5.47,0,0,1,2.06.36,4,4,0,0,1,1.21.71L672.23,873a2.16,2.16,0,0,0-.34-.33,2.72,2.72,0,0,0-1.7-.62,2.62,2.62,0,0,0-2.15.84,3.44,3.44,0,0,0-.74,2.21,3.76,3.76,0,0,0,.71,2.5,2.6,2.6,0,0,0,2.07.93,4.24,4.24,0,0,0,1.35-.19,3.68,3.68,0,0,0,1-.42l.82,1.65a4.82,4.82,0,0,1-1.25.61A5.48,5.48,0,0,1,670,880.45Z" style="fill: #c2c2c2"/>
      <path d="M675.45,880.32l.25-15.92,2.28,0-.1,6-.12,1.83a3.55,3.55,0,0,1,1.32-1.47,3.79,3.79,0,0,1,2.16-.57,3.7,3.7,0,0,1,2.39.7,3.27,3.27,0,0,1,1,1.89,13.71,13.71,0,0,1,.22,2.88l-.08,4.79-2.31,0,.07-4.81a7.24,7.24,0,0,0-.3-2.58,1.54,1.54,0,0,0-1.57-.87,2.67,2.67,0,0,0-1.27.36,3.17,3.17,0,0,0-1.13,1.09,3.34,3.34,0,0,0-.49,1.8l-.08,4.93Z" style="fill: #c2c2c2"/>
      <path d="M692.2,880.8a5.29,5.29,0,0,1-2.73-.73,4.93,4.93,0,0,1-1.79-1.92,5.26,5.26,0,0,1-.61-2.65,5.33,5.33,0,0,1,.68-2.6,4.81,4.81,0,0,1,1.84-1.85,5.21,5.21,0,0,1,2.78-.66,5.31,5.31,0,0,1,2.76.75,4.85,4.85,0,0,1,1.77,1.91,5.48,5.48,0,0,1,.58,2.62,5.42,5.42,0,0,1-.68,2.63,4.68,4.68,0,0,1-1.84,1.85A5.13,5.13,0,0,1,692.2,880.8Zm.1-1.9a2.36,2.36,0,0,0,2-.92,3.84,3.84,0,0,0,.74-2.31,4,4,0,0,0-.32-1.68,3.08,3.08,0,0,0-1-1.22,2.53,2.53,0,0,0-1.5-.48,2.37,2.37,0,0,0-1.45.43,3.05,3.05,0,0,0-1,1.19,3.94,3.94,0,0,0-.37,1.67,3.84,3.84,0,0,0,.34,1.67,3,3,0,0,0,1,1.19A2.57,2.57,0,0,0,692.3,878.9Z" style="fill: #c2c2c2"/>
      <path d="M703.1,880.76l-5.08-10,2.66,0,2.07,4.52.67,1.81.72-1.79,2.19-4.45,2.6,0-5.38,9.86Z" style="fill: #c2c2c2"/>
      <path d="M714.25,881.16a5,5,0,0,1-2.45-.67,4.8,4.8,0,0,1-1.8-1.83,5.33,5.33,0,0,1-.65-2.8,6,6,0,0,1,.64-2.72,4.37,4.37,0,0,1,1.72-1.79,5.08,5.08,0,0,1,2.62-.61,4.42,4.42,0,0,1,1.65.34,4.7,4.7,0,0,1,1.24.78,2.37,2.37,0,0,1,.67.87l.07-1.67,2.23,0L720,881l-2.21,0v-1.76a2.81,2.81,0,0,1-.74.92,4.32,4.32,0,0,1-1.24.73A4.07,4.07,0,0,1,714.25,881.16Zm.42-1.94a2.88,2.88,0,0,0,2.54-1.41,3.2,3.2,0,0,0,.43-1.64V876a3.48,3.48,0,0,0-.37-1.71,3,3,0,0,0-1-1.14,2.74,2.74,0,0,0-1.46-.43,2.58,2.58,0,0,0-2.19.9,4,4,0,0,0-.07,4.61A2.59,2.59,0,0,0,714.67,879.22Z" style="fill: #c2c2c2"/>
    </g>
    <g>
      <path d="M103.37,564.67l15.84,1.53-.72,7.44-2.09-.2.49-5.05L112.4,568l-.38,3.92-2.11-.2.38-3.93-7.15-.69Z" style="fill: #c2c2c2"/>
      <path d="M101.88,577.78a5.74,5.74,0,0,1,1-2.95,4.33,4.33,0,0,1,2.08-1.52,6.17,6.17,0,0,1,2.57-.3,5.72,5.72,0,0,1,2.72.93,4.65,4.65,0,0,1,1.62,2,5.33,5.33,0,0,1,.38,2.69,4.25,4.25,0,0,1-1.63,3.3,5.41,5.41,0,0,1-3.61.74q-.58-.06-1.2-.18l.69-7.12a3,3,0,0,0-2,.78,3,3,0,0,0-.76,1.87,6,6,0,0,0,0,1.85,9.46,9.46,0,0,0,.32,1.15l-1.73.55a6.12,6.12,0,0,1-.44-1.4A7.93,7.93,0,0,1,101.88,577.78Zm6.24-2.25-.47,4.91a2.33,2.33,0,0,0,2-.43,3,3,0,0,0,.28-3.45A2.88,2.88,0,0,0,108.12,575.53Z" style="fill: #c2c2c2"/>
      <path d="M101.45,584.48,117.29,586l-.22,2.31-15.85-1.54Z" style="fill: #c2c2c2"/>
      <path d="M100.17,595.43a4.05,4.05,0,0,1,.44-1.55,4,4,0,0,1,.86-1.12,3.18,3.18,0,0,1,1-.63l-1.74-.22.21-2.24,15.85,1.54-.22,2.28-6.1-.59-1.68-.27a2.81,2.81,0,0,1,1,.9,4.39,4.39,0,0,1,.64,1.4,4.55,4.55,0,0,1,.13,1.65,4.81,4.81,0,0,1-.9,2.5,4.46,4.46,0,0,1-2,1.49,6.1,6.1,0,0,1-2.78.32,5.38,5.38,0,0,1-2.7-1,4.7,4.7,0,0,1-1.59-2A5,5,0,0,1,100.17,595.43Zm2-.2a2.61,2.61,0,0,0,.71,2.28,4,4,0,0,0,4.6.44,2.6,2.6,0,0,0,1.13-2.1,2.9,2.9,0,0,0-.24-1.48,2.71,2.71,0,0,0-1-1.17,3.32,3.32,0,0,0-1.6-.56h-.15a3.71,3.71,0,0,0-1.72.25,2.88,2.88,0,0,0-1.23.93A2.75,2.75,0,0,0,102.15,595.23Z" style="fill: #c2c2c2"/>
      <path d="M99,607.54a5.68,5.68,0,0,1,1-2.95,4.33,4.33,0,0,1,2.07-1.51,5.92,5.92,0,0,1,2.58-.3,5.54,5.54,0,0,1,2.71.93,4.58,4.58,0,0,1,1.63,2,5.47,5.47,0,0,1,.38,2.69,4.23,4.23,0,0,1-1.64,3.31,5.32,5.32,0,0,1-3.6.73,9.09,9.09,0,0,1-1.21-.18l.69-7.11a2.6,2.6,0,0,0-2.75,2.65,6.11,6.11,0,0,0,0,1.85,7.32,7.32,0,0,0,.33,1.14l-1.73.55a5.55,5.55,0,0,1-.44-1.39A7.67,7.67,0,0,1,99,607.54Zm6.24-2.24-.48,4.91a2.28,2.28,0,0,0,2-.44,2.57,2.57,0,0,0,.68-1.63,2.62,2.62,0,0,0-.4-1.81A2.8,2.8,0,0,0,105.24,605.3Z" style="fill: #c2c2c2"/>
      <path d="M98.58,614.14l9.89,1-.23,2.32-1.94-.18a3.45,3.45,0,0,1,1.48,1.26,2.74,2.74,0,0,1,.44,1.84,2.3,2.3,0,0,1-.22.93l-2.32-.55a1.73,1.73,0,0,0,.21-.83,3.1,3.1,0,0,0-.12-1.18,2.34,2.34,0,0,0-.73-1.15,2.73,2.73,0,0,0-1.6-.6l-5.09-.49Z" style="fill: #c2c2c2"/>
      <path d="M97.2,626.12a5.38,5.38,0,0,1,1-2.66,4.9,4.9,0,0,1,2-1.64,5.51,5.51,0,0,1,2.69-.39,5.37,5.37,0,0,1,2.54.89,4.88,4.88,0,0,1,1.7,2,5.85,5.85,0,0,1-.53,5.52,4.85,4.85,0,0,1-2,1.6,5.4,5.4,0,0,1-2.66.38,5.6,5.6,0,0,1-2.57-.89,4.8,4.8,0,0,1-1.7-2A5.38,5.38,0,0,1,97.2,626.12Zm1.89.25a2.35,2.35,0,0,0,.75,2.09,3.88,3.88,0,0,0,2.24.92,4,4,0,0,0,1.71-.18,3.11,3.11,0,0,0,1.29-.87,2.49,2.49,0,0,0,.59-1.45,2.33,2.33,0,0,0-.31-1.49,3,3,0,0,0-1.1-1,4.1,4.1,0,0,0-1.64-.5,3.64,3.64,0,0,0-1.69.21,2.9,2.9,0,0,0-1.27.89A2.5,2.5,0,0,0,99.09,626.37Z" style="fill: #c2c2c2"/>
      <path d="M96.36,637l10.4-4.25-.26,2.65-4.66,1.7-1.86.52,1.72.86L106,641l-.25,2.59-9.39-6.15Z" style="fill: #c2c2c2"/>
      <path d="M95.07,648.06a5,5,0,0,1,.86-2.38,4.75,4.75,0,0,1,2-1.65,5.38,5.38,0,0,1,2.85-.42,5.85,5.85,0,0,1,2.66.86,4.37,4.37,0,0,1,1.64,1.85,5.11,5.11,0,0,1,.4,2.66,4.32,4.32,0,0,1-.47,1.62,4.6,4.6,0,0,1-.88,1.18,2.32,2.32,0,0,1-.92.59l1.66.21-.22,2.22-9.89-1,.21-2.2,1.75.13a2.93,2.93,0,0,1-.85-.81,4.31,4.31,0,0,1-.63-1.29A4.26,4.26,0,0,1,95.07,648.06Zm1.9.58a2.88,2.88,0,0,0,.24,1.49,2.85,2.85,0,0,0,1,1.16,3.18,3.18,0,0,0,1.59.56h.16a3.39,3.39,0,0,0,1.73-.23,3,3,0,0,0,1.22-1,2.71,2.71,0,0,0,.54-1.42,2.59,2.59,0,0,0-.72-2.25,3.64,3.64,0,0,0-2.21-1,3.73,3.73,0,0,0-2.38.5A2.63,2.63,0,0,0,97,648.64Z" style="fill: #c2c2c2"/>
    </g>
    <g>
      <path d="M166.33,39.69,163.05,32l-.83-2.32-.62,2.21-2,7.3L157.2,39l4.44-15.64.26,0,3.74,8.9,1.08,3,1.51-2.78,4.9-8.26.24,0,2.25,16.12-2.37-.17-1.06-7.52-.31-2.29-1,2.19-4.39,7.12Z" style="fill: #c2c2c2"/>
      <path d="M182.11,41.06a5.39,5.39,0,0,1-2.69-.9,4.7,4.7,0,0,1-1.68-2,5.36,5.36,0,0,1-.46-2.68,5.46,5.46,0,0,1,.83-2.56,4.87,4.87,0,0,1,1.94-1.74,5.83,5.83,0,0,1,5.53.4,4.87,4.87,0,0,1,1.65,2,5.48,5.48,0,0,1,.44,2.65,5.54,5.54,0,0,1-.83,2.59,4.73,4.73,0,0,1-1.94,1.74A5.29,5.29,0,0,1,182.11,41.06Zm.2-1.9a2.39,2.39,0,0,0,2.07-.8,3.86,3.86,0,0,0,.87-2.26,3.93,3.93,0,0,0-.23-1.7,2.9,2.9,0,0,0-.89-1.27,2.47,2.47,0,0,0-1.47-.57,2.39,2.39,0,0,0-1.48.35,3,3,0,0,0-1,1.13,4,4,0,0,0-.45,1.65,3.76,3.76,0,0,0,.24,1.68,3.07,3.07,0,0,0,.92,1.25A2.57,2.57,0,0,0,182.31,39.16Z" style="fill: #c2c2c2"/>
      <path d="M192.8,41.84a9.49,9.49,0,0,1-1.43-.24,10.06,10.06,0,0,1-1.34-.43,3.58,3.58,0,0,1-.9-.51l.91-1.78a6.45,6.45,0,0,0,1.07.66,4.62,4.62,0,0,0,1.82.46,2.19,2.19,0,0,0,1.34-.19.91.91,0,0,0,.4-.66.82.82,0,0,0-.25-.66,3.29,3.29,0,0,0-.8-.48l-1.24-.57a9.17,9.17,0,0,1-1.31-.8,3.29,3.29,0,0,1-1-1.07,2.57,2.57,0,0,1-.3-1.49A2.47,2.47,0,0,1,191,32a4.94,4.94,0,0,1,2.9-.53,7.73,7.73,0,0,1,1.75.32,3.74,3.74,0,0,1,1.25.59l-1,1.8a2.23,2.23,0,0,0-.82-.54,4.19,4.19,0,0,0-1.4-.32c-1-.08-1.55.2-1.6.82a.87.87,0,0,0,.28.74,2.8,2.8,0,0,0,.86.52l1.16.53a5.93,5.93,0,0,1,1.93,1.35,2.35,2.35,0,0,1,.57,1.85,2.63,2.63,0,0,1-.66,1.65,3.13,3.13,0,0,1-1.51.88A6,6,0,0,1,192.8,41.84Z" style="fill: #c2c2c2"/>
      <path d="M199,42.08l1.16-15.88,2.23.16-.64,8.71-.17,1.68,4.11-4.15,2.87.21-4,3.87,3.34,6-2.75-.2-1.77-3.38L202.89,38l-1.4,1.31-.21,2.94Z" style="fill: #c2c2c2"/>
      <path d="M214.11,43.4a5.81,5.81,0,0,1-3-.95,4.33,4.33,0,0,1-1.56-2,6,6,0,0,1-.36-2.56,5.69,5.69,0,0,1,.86-2.74,4.6,4.6,0,0,1,2-1.67,5.3,5.3,0,0,1,2.68-.44,4.22,4.22,0,0,1,3.34,1.55,5.33,5.33,0,0,1,.82,3.59,10.79,10.79,0,0,1-.15,1.21l-7.13-.52a3.08,3.08,0,0,0,.82,2,3.11,3.11,0,0,0,1.9.71,6.18,6.18,0,0,0,1.85-.08,8.59,8.59,0,0,0,1.13-.35l.59,1.71a5.63,5.63,0,0,1-1.38.48A8,8,0,0,1,214.11,43.4Zm-2.39-6.19,4.93.36a2.3,2.3,0,0,0-.49-2,2.62,2.62,0,0,0-1.65-.64,2.59,2.59,0,0,0-1.8.44A2.86,2.86,0,0,0,211.72,37.21Z" style="fill: #c2c2c2"/>
      <path d="M224.22,43.92l-4.51-10.3,2.66.19,1.81,4.63.56,1.84.82-1.74L228,34.23l2.59.19L224.67,44Z" style="fill: #c2c2c2"/>
      <path d="M234.31,44.87a8.33,8.33,0,0,1-1.43-.23,10,10,0,0,1-1.34-.44,3.58,3.58,0,0,1-.9-.51l.91-1.78a7.1,7.1,0,0,0,1.07.67,4.63,4.63,0,0,0,1.82.45,2.11,2.11,0,0,0,1.34-.19.91.91,0,0,0,.4-.66.76.76,0,0,0-.25-.65,3,3,0,0,0-.8-.49l-1.24-.56a10.24,10.24,0,0,1-1.31-.81,3.19,3.19,0,0,1-1-1.07,2.53,2.53,0,0,1-.3-1.48,2.44,2.44,0,0,1,1.24-2.07,4.87,4.87,0,0,1,2.91-.54,7.75,7.75,0,0,1,1.74.32,3.74,3.74,0,0,1,1.25.59l-1,1.8a2.51,2.51,0,0,0-.82-.54,4.18,4.18,0,0,0-1.39-.32c-1-.07-1.56.2-1.61.82a.91.91,0,0,0,.29.75,2.81,2.81,0,0,0,.85.52c.36.15.74.32,1.16.53a6.25,6.25,0,0,1,1.94,1.34,2.45,2.45,0,0,1,.57,1.86,2.63,2.63,0,0,1-.67,1.64,3.05,3.05,0,0,1-1.51.88A5.78,5.78,0,0,1,234.31,44.87Z" style="fill: #c2c2c2"/>
      <path d="M240.54,45.11l1.16-15.87,2.23.16-.64,8.7-.16,1.68,4.1-4.15,2.87.21-4,3.88,3.34,6-2.74-.2-1.78-3.39L244.4,41,243,42.34l-.22,2.93Z" style="fill: #c2c2c2"/>
      <path d="M255.37,46.41A4.88,4.88,0,0,1,253,45.6a4.7,4.7,0,0,1-1.69-1.92,5.32,5.32,0,0,1-.49-2.84,5.9,5.9,0,0,1,.79-2.68,4.36,4.36,0,0,1,1.82-1.69A4.94,4.94,0,0,1,256,36a4.09,4.09,0,0,1,1.63.43,4.37,4.37,0,0,1,1.19.85,2.39,2.39,0,0,1,.62.9l.17-1.66,2.22.16-.72,9.92-2.21-.17L259,44.7a2.91,2.91,0,0,1-.79.88,4.27,4.27,0,0,1-2.87.83Zm.53-1.92a2.85,2.85,0,0,0,2.62-1.26,3.27,3.27,0,0,0,.52-1.61v-.15a3.48,3.48,0,0,0-.28-1.73,3,3,0,0,0-1-1.2,2.77,2.77,0,0,0-1.43-.5,2.57,2.57,0,0,0-2.24.77,3.62,3.62,0,0,0-.89,2.23,3.71,3.71,0,0,0,.55,2.37A2.6,2.6,0,0,0,255.9,44.49Zm.71-9.82-1.51-1L258.77,29l2,1.47Z" style="fill: #c2c2c2"/>
    </g>
    <g>
      <path d="M500.55,46.48l-8.54-11L492,37.25l-.63,8.56-2.41-.18,1.16-15.9.3,0,8.57,11.09L499,39l.63-8.58,2.42.18L500.87,46.5Z" style="fill: #c2c2c2"/>
      <path d="M508.2,47.26a5.13,5.13,0,0,1-2.41-.81,4.78,4.78,0,0,1-1.69-1.92,5.34,5.34,0,0,1-.49-2.84A6,6,0,0,1,504.4,39a4.42,4.42,0,0,1,1.82-1.69,5,5,0,0,1,2.65-.46,4.27,4.27,0,0,1,1.63.44,4.57,4.57,0,0,1,1.2.84,2.42,2.42,0,0,1,.61.91l.17-1.66,2.22.16L514,47.46l-2.2-.16.08-1.75a2.77,2.77,0,0,1-.79.87,4.13,4.13,0,0,1-1.27.66A4.2,4.2,0,0,1,508.2,47.26Zm.53-1.92a2.85,2.85,0,0,0,2.62-1.26,3.27,3.27,0,0,0,.52-1.61v-.15a3.35,3.35,0,0,0-.28-1.73,3,3,0,0,0-1-1.2,2.78,2.78,0,0,0-1.43-.51,2.61,2.61,0,0,0-2.24.77,3.65,3.65,0,0,0-.89,2.24,3.61,3.61,0,0,0,.56,2.36A2.55,2.55,0,0,0,508.73,45.34Zm.72-9.83-1.52-1,3.67-4.7,2,1.47Z" style="fill: #c2c2c2"/>
      <path d="M516.74,47.66l.73-9.91,2.33.17-.13,1.79a3.31,3.31,0,0,1,1.54-1.45,4.36,4.36,0,0,1,2.11-.34,4.14,4.14,0,0,1,2.19.68,2.54,2.54,0,0,1,.94,1.39A3.28,3.28,0,0,1,528,38.76a4.24,4.24,0,0,1,2-.35,3.91,3.91,0,0,1,2.37.79,2.91,2.91,0,0,1,.9,1.85,13.57,13.57,0,0,1,.05,2.83l-.36,5-2.36-.17.36-5a6.72,6.72,0,0,0-.15-2.49,1.35,1.35,0,0,0-1.33-.9,2.39,2.39,0,0,0-2.17.8,4.06,4.06,0,0,0-.84,2.33l-.36,4.92-2.33-.17.39-5.34c0-.61.05-1.14,0-1.58a1.5,1.5,0,0,0-.39-1,1.85,1.85,0,0,0-1.26-.44,2.41,2.41,0,0,0-1.44.35A3.33,3.33,0,0,0,520,41.27a3.45,3.45,0,0,0-.52,1.64l-.36,4.93Z" style="fill: #c2c2c2"/>
      <path d="M540.42,49.61a5.65,5.65,0,0,1-3-.94,4.35,4.35,0,0,1-1.57-2,6,6,0,0,1-.35-2.56,5.55,5.55,0,0,1,.86-2.74,4.6,4.6,0,0,1,2-1.67,5.41,5.41,0,0,1,2.68-.45,4.25,4.25,0,0,1,3.34,1.56,5.37,5.37,0,0,1,.82,3.59q0,.59-.15,1.2L537.91,45a3,3,0,0,0,.82,2,3.05,3.05,0,0,0,1.89.72,6.14,6.14,0,0,0,1.85-.08,8.32,8.32,0,0,0,1.14-.35L544.2,49a5.69,5.69,0,0,1-1.38.47A8,8,0,0,1,540.42,49.61Zm.5-11.58-3.52-5L538.89,32l2.22,3.4,2.72-3,1.3,1.27ZM538,43.42l4.92.36a2.29,2.29,0,0,0-.48-2,3,3,0,0,0-3.45-.2A2.86,2.86,0,0,0,538,43.42Z" style="fill: #c2c2c2"/>
      <path d="M550.38,50.34a8.33,8.33,0,0,1-1.43-.23,10.53,10.53,0,0,1-1.34-.44,3.77,3.77,0,0,1-.9-.51l.91-1.78a7.1,7.1,0,0,0,1.07.67,4.63,4.63,0,0,0,1.82.45,2.11,2.11,0,0,0,1.34-.19.88.88,0,0,0,.4-.66A.76.76,0,0,0,552,47a3,3,0,0,0-.8-.49L550,46a10.24,10.24,0,0,1-1.31-.81,3.19,3.19,0,0,1-1-1.07,2.53,2.53,0,0,1-.3-1.48,2.44,2.44,0,0,1,1.24-2.07,4.89,4.89,0,0,1,2.91-.54,7.75,7.75,0,0,1,1.74.32,3.74,3.74,0,0,1,1.25.59l-1,1.8a2.36,2.36,0,0,0-.82-.54,4.18,4.18,0,0,0-1.39-.32c-1-.07-1.56.2-1.61.82a.91.91,0,0,0,.29.75,3,3,0,0,0,.85.52c.36.15.74.32,1.16.53A6.09,6.09,0,0,1,554,45.79a2.45,2.45,0,0,1,.57,1.86,2.57,2.57,0,0,1-.67,1.64,3.07,3.07,0,0,1-1.5.88A5.86,5.86,0,0,1,550.38,50.34Z" style="fill: #c2c2c2"/>
      <path d="M557.37,50.63l.58-8-1.74-.13.14-1.9,1.74.13.3-4,2.39-.34-.33,4.55,2.29.17L562.6,43l-2.29-.17-.59,8Z" style="fill: #c2c2c2"/>
      <path d="M564,51.12l.73-9.91,2.41.17-.72,9.92Zm2-11.47-1.51-1,3.67-4.7,1.95,1.46Z" style="fill: #c2c2c2"/>
      <path d="M575.1,51.93l1.16-15.87,3.82.28a12.09,12.09,0,0,1,3.61.74,7.5,7.5,0,0,1,2.38,1.44,6.11,6.11,0,0,1,1.39,1.9,7.6,7.6,0,0,1,.62,2.13,10.48,10.48,0,0,1,.06,2.08,10.19,10.19,0,0,1-.64,2.92,7.38,7.38,0,0,1-1.58,2.54,6.74,6.74,0,0,1-2.74,1.71,10.16,10.16,0,0,1-4.13.42Zm2.58-2,1.79.13a6.41,6.41,0,0,0,2.72-.3A4.57,4.57,0,0,0,584,48.58a5.43,5.43,0,0,0,1.09-1.86,7.91,7.91,0,0,0,.45-2.17,7,7,0,0,0-.33-2.85,4.43,4.43,0,0,0-1.63-2.2,6.26,6.26,0,0,0-3.3-1l-1.8-.13Z" style="fill: #c2c2c2"/>
      <path d="M589.75,53l.72-9.91,2.33.17-.14,1.94a3.5,3.5,0,0,1,1.23-1.5,2.72,2.72,0,0,1,1.82-.49,2.33,2.33,0,0,1,.95.2l-.5,2.33a1.68,1.68,0,0,0-.83-.19,3.22,3.22,0,0,0-1.19.15,2.45,2.45,0,0,0-1.13.75,2.77,2.77,0,0,0-.56,1.62l-.37,5.1Z" style="fill: #c2c2c2"/>
      <path d="M596.64,53.72a1.51,1.51,0,0,1-1.07-.52,1.48,1.48,0,0,1-.37-1.13,1.51,1.51,0,0,1,.52-1.08,1.55,1.55,0,0,1,1.15-.36,1.52,1.52,0,0,1,1.09.53,1.56,1.56,0,0,1,.35,1.14,1.5,1.5,0,0,1-.52,1.06A1.55,1.55,0,0,1,596.64,53.72Z" style="fill: #c2c2c2"/>
      <path d="M605.6,54.16l1.16-15.87,7,.5-.15,2.12L609,40.58,608.68,45l3.67.27-.16,2.16-3.67-.27-.37,5.08,5.27.38-.16,2.14Z" style="fill: #c2c2c2"/>
      <path d="M616.21,55.15a1.51,1.51,0,0,1-1.07-.52,1.49,1.49,0,0,1-.38-1.13,1.52,1.52,0,0,1,.53-1.07,1.55,1.55,0,0,1,2.58,1.3,1.47,1.47,0,0,1-.52,1.06A1.49,1.49,0,0,1,616.21,55.15Z" style="fill: #c2c2c2"/>
      <path d="M625.19,55.59l1.16-15.87,4,.29a9.72,9.72,0,0,1,3,.62,4,4,0,0,1,1.62,1.11,3.24,3.24,0,0,1,.63,1.33,5.58,5.58,0,0,1,.08,1.26,5.33,5.33,0,0,1-.28,1.3,3.71,3.71,0,0,1-.71,1.21,3.12,3.12,0,0,1-1.25.83,3.73,3.73,0,0,1,2.19,1.58,3.85,3.85,0,0,1,.52,2.28,7.83,7.83,0,0,1-.32,1.7,3.52,3.52,0,0,1-.92,1.5,4.34,4.34,0,0,1-1.93,1,10.29,10.29,0,0,1-3.34.19Zm2.52-1.86,2.48.19a5,5,0,0,0,1.78-.13,2.46,2.46,0,0,0,1-.6,1.94,1.94,0,0,0,.52-.86,4.06,4.06,0,0,0,.18-1,2.16,2.16,0,0,0-.62-1.81,3.69,3.69,0,0,0-2.33-.81l-2.68-.2Zm.52-7.1,2,.15a3.39,3.39,0,0,0,1.76-.25,2.15,2.15,0,0,0,.92-.92,3.19,3.19,0,0,0,.34-1.26,2.14,2.14,0,0,0-.17-1,1.76,1.76,0,0,0-.83-.81,4.65,4.65,0,0,0-1.79-.42l-1.94-.14Z" style="fill: #c2c2c2"/>
      <path d="M643,57.11a5.65,5.65,0,0,1-3-.94,4.41,4.41,0,0,1-1.57-2,6,6,0,0,1-.35-2.56,5.65,5.65,0,0,1,.86-2.74,4.6,4.6,0,0,1,2-1.67,5.41,5.41,0,0,1,2.68-.45A4.25,4.25,0,0,1,647,48.27a5.38,5.38,0,0,1,.82,3.59q0,.59-.15,1.2l-7.13-.52a3,3,0,0,0,.82,2,3.05,3.05,0,0,0,1.89.72,6.23,6.23,0,0,0,1.86-.08,8.59,8.59,0,0,0,1.13-.35l.59,1.71a5.69,5.69,0,0,1-1.38.47A7.73,7.73,0,0,1,643,57.11Zm-2.39-6.19,4.92.36a2.29,2.29,0,0,0-.48-2,3,3,0,0,0-3.45-.2A2.86,2.86,0,0,0,640.64,50.92Z" style="fill: #c2c2c2"/>
      <path d="M649.63,57.38l.73-9.92,2.29.17-.11,1.82a3.45,3.45,0,0,1,1.37-1.39,4.36,4.36,0,0,1,4.5.4,3.21,3.21,0,0,1,.93,1.94,13.49,13.49,0,0,1,.06,2.89l-.35,4.78-2.33-.17.34-4.71a7.84,7.84,0,0,0-.14-2.66,1.46,1.46,0,0,0-1.48-1,2.62,2.62,0,0,0-1.32.29,3.32,3.32,0,0,0-1.21,1,3.36,3.36,0,0,0-.58,1.78L652,57.55Z" style="fill: #c2c2c2"/>
      <path d="M666.51,58.83a5.65,5.65,0,0,1-3-.95,4.28,4.28,0,0,1-1.57-2,6,6,0,0,1-.35-2.57,5.48,5.48,0,0,1,.86-2.74,4.64,4.64,0,0,1,1.95-1.67,5.56,5.56,0,0,1,2.69-.44A4.17,4.17,0,0,1,670.45,50a5.31,5.31,0,0,1,.83,3.59,10.72,10.72,0,0,1-.16,1.2L664,54.26a3,3,0,0,0,.82,2,3,3,0,0,0,1.89.71,6.16,6.16,0,0,0,1.85-.08,8.32,8.32,0,0,0,1.14-.35l.59,1.72a6.47,6.47,0,0,1-1.39.47A8,8,0,0,1,666.51,58.83Zm-2.39-6.19L669,53a2.32,2.32,0,0,0-.49-2,2.57,2.57,0,0,0-1.64-.64,2.74,2.74,0,0,0-1.81.44A2.81,2.81,0,0,0,664.12,52.64Z" style="fill: #c2c2c2"/>
      <path d="M676.47,59.56a9.28,9.28,0,0,1-1.43-.24,10.06,10.06,0,0,1-1.34-.43,3.87,3.87,0,0,1-.91-.51l.92-1.78a6,6,0,0,0,1.07.66,4.58,4.58,0,0,0,1.82.46,2.19,2.19,0,0,0,1.34-.19.89.89,0,0,0,.39-.66.78.78,0,0,0-.24-.66,3.5,3.5,0,0,0-.8-.48l-1.24-.57a9.17,9.17,0,0,1-1.31-.8,3.44,3.44,0,0,1-1-1.07,2.63,2.63,0,0,1-.29-1.49,2.47,2.47,0,0,1,1.24-2.07,4.92,4.92,0,0,1,2.9-.53,7.73,7.73,0,0,1,1.75.32,3.84,3.84,0,0,1,1.25.59l-1,1.8a2.23,2.23,0,0,0-.82-.54,4.19,4.19,0,0,0-1.4-.32c-1-.08-1.55.2-1.6.82a.87.87,0,0,0,.28.74,2.87,2.87,0,0,0,.85.52c.36.15.75.33,1.17.53A6,6,0,0,1,680,55a2.35,2.35,0,0,1,.57,1.85,2.63,2.63,0,0,1-.66,1.65,3.13,3.13,0,0,1-1.51.88A6,6,0,0,1,676.47,59.56ZM677.24,48l-3.52-5L675.21,42l2.23,3.39,2.71-3,1.3,1.26Z" style="fill: #c2c2c2"/>
      <path d="M687.29,60.35a5.72,5.72,0,0,1-3-1,4.3,4.3,0,0,1-1.56-2,6.2,6.2,0,0,1-.36-2.57,5.59,5.59,0,0,1,.87-2.74,4.58,4.58,0,0,1,2-1.67,5.41,5.41,0,0,1,2.68-.44,4.18,4.18,0,0,1,3.34,1.56,5.36,5.36,0,0,1,.83,3.58,10.88,10.88,0,0,1-.16,1.21l-7.13-.52a3,3,0,0,0,.83,2,3,3,0,0,0,1.89.71,6.18,6.18,0,0,0,1.85-.08,8.14,8.14,0,0,0,1.13-.35l.59,1.71a5.63,5.63,0,0,1-1.38.48A8,8,0,0,1,687.29,60.35Zm-2.4-6.19,4.93.36a2.31,2.31,0,0,0-.49-2,2.57,2.57,0,0,0-1.64-.64,2.67,2.67,0,0,0-1.81.44A2.86,2.86,0,0,0,684.89,54.16Z" style="fill: #c2c2c2"/>
    </g>
    <g>
      <path d="M1042.61,459.43a9,9,0,0,1-1-2.47,5.44,5.44,0,0,1-.05-2.3l2.31,0c0,.16,0,.44-.05.81a6.06,6.06,0,0,0,.14,1.32,5.13,5.13,0,0,0,.57,1.5,3.52,3.52,0,0,0,1.9,1.69,2.85,2.85,0,0,0,2.45-.29,3.32,3.32,0,0,0,1.14-1,2.59,2.59,0,0,0,.45-1.54,4.47,4.47,0,0,0-.67-2.1c-.22-.38-.46-.76-.73-1.14s-.55-.72-.82-1a3,3,0,0,0-.7-.62l7.44-3.83,4,7.11-1.84,1-2.86-5-3.39,1.66a3.48,3.48,0,0,1,.49.59c.17.24.35.55.56.91a5.67,5.67,0,0,1,.8,4.09,4.61,4.61,0,0,1-2.43,3,6,6,0,0,1-2.87.84,4.84,4.84,0,0,1-2.7-.75A6.49,6.49,0,0,1,1042.61,459.43Z" style="fill: #c2c2c2"/>
      <path d="M1047,467a1.57,1.57,0,0,1-.16-1.18,1.48,1.48,0,0,1,.73-.93,1.52,1.52,0,0,1,1.19-.16,1.49,1.49,0,0,1,.94.75,1.51,1.51,0,0,1,.16,1.2,1.61,1.61,0,0,1-1.92,1.08A1.54,1.54,0,0,1,1047,467Z" style="fill: #c2c2c2"/>
      <path d="M1051.6,474.67l13.86-7.82,1.09,1.94-7.6,4.29-1.49.79,5.73,1.12,1.42,2.51-5.46-1.22L1056,482.4l-1.35-2.39,1.84-3.35.68-1-1.86-.44-2.56,1.44Z" style="fill: #c2c2c2"/>
      <path d="M1058.68,487.21l6.08-9.45,1.31,2.32-2.85,4.07-1.23,1.49,1.91-.28,4.95-.36,1.27,2.26-11.22.35Z" style="fill: #c2c2c2"/>
      <path d="M1064.11,497.27a5.75,5.75,0,0,1-.86-3,4.36,4.36,0,0,1,.83-2.43,6.05,6.05,0,0,1,1.94-1.72,5.64,5.64,0,0,1,2.76-.8,4.66,4.66,0,0,1,2.47.7,5.41,5.41,0,0,1,1.86,2,4.21,4.21,0,0,1,.55,3.64,5.36,5.36,0,0,1-2.53,2.68c-.34.19-.7.37-1.09.54l-3.51-6.23a2.61,2.61,0,0,0-.74,3.75,6.06,6.06,0,0,0,1.09,1.5,8,8,0,0,0,.92.75l-1.1,1.44a5.86,5.86,0,0,1-1.16-.88A8.25,8.25,0,0,1,1064.11,497.27Zm3.83-5.42,2.43,4.3c.82-.45,1.28-.94,1.37-1.49a3,3,0,0,0-1.75-3A2.85,2.85,0,0,0,1067.94,491.85Zm6.09-.58,2.17-5.67,1.71.65-1.6,3.74,4,.58-.34,1.78Z" style="fill: #c2c2c2"/>
      <path d="M1068,503.64l7-4-.86-1.52,1.66-.94.86,1.53,3.53-2,1.61,1.8-4,2.24,1.13,2-1.66.94-1.13-2-7,3.95Z" style="fill: #c2c2c2"/>
      <path d="M1071.14,509.27l8.65-4.88,1.13,2-1.57.92a3.43,3.43,0,0,1,1.91.37,3.59,3.59,0,0,1,1.56,1.55,3.69,3.69,0,0,1,.61,2.42,3.25,3.25,0,0,1-1.1,1.85,14,14,0,0,1-2.38,1.65l-4.17,2.36-1.15-2,4.11-2.32a8.12,8.12,0,0,0,2.14-1.59,1.46,1.46,0,0,0,0-1.8,2.62,2.62,0,0,0-1-.94,3.36,3.36,0,0,0-1.53-.43,3.48,3.48,0,0,0-1.81.5l-4.3,2.43Z" style="fill: #c2c2c2"/>
      <path d="M1079.13,523.86a5,5,0,0,1-.66-2.45,4.77,4.77,0,0,1,.66-2.47,5.41,5.41,0,0,1,2.09-2,5.89,5.89,0,0,1,2.67-.82,4.38,4.38,0,0,1,2.42.57,5.06,5.06,0,0,1,1.85,1.95,4.16,4.16,0,0,1,.54,1.6,4.74,4.74,0,0,1,0,1.47,2.58,2.58,0,0,1-.41,1l1.47-.78,1.1,1.94-8.66,4.89-1.08-1.92,1.5-.9a2.79,2.79,0,0,1-1.16-.18,4.18,4.18,0,0,1-2.29-1.93Zm1.89-.62a2.82,2.82,0,0,0,1,1.09,2.87,2.87,0,0,0,1.45.4,3.28,3.28,0,0,0,1.63-.46l.14-.08a3.49,3.49,0,0,0,1.28-1.18,3,3,0,0,0,.46-1.48,2.82,2.82,0,0,0-.37-1.47,2.63,2.63,0,0,0-1.88-1.44,4,4,0,0,0-4,2.27A2.58,2.58,0,0,0,1081,523.24Z" style="fill: #c2c2c2"/>
    </g>
    <g>
      <path d="M1176,960l-4.79-2.27.88-1.42,3.29,1.14,2.39-2.52,1.42.86Zm3.42,16.88a7.26,7.26,0,0,1-1.8.21,8.46,8.46,0,0,1-1.67-.18,3.67,3.67,0,0,1-1.17-.41l.63-2.27a6.33,6.33,0,0,0,.84.31,5.91,5.91,0,0,0,1.28.26,4.1,4.1,0,0,0,1.36-.08,3.2,3.2,0,0,0,1.68-1,1.72,1.72,0,0,0,.36-1.65,2.09,2.09,0,0,0-.74-1.22,4.24,4.24,0,0,0-1.33-.66c-.52-.15-1.07-.29-1.66-.41a12.31,12.31,0,0,1-1.71-.46,5.42,5.42,0,0,1-1.78-1.1,4.28,4.28,0,0,1-1.18-2.19,3.82,3.82,0,0,1,1.45-4.24,6.79,6.79,0,0,1,4-1.23,5,5,0,0,1,1.33.21,6.55,6.55,0,0,1,.88.34l-.65,2.19a3.37,3.37,0,0,0-1.24-.44,3.85,3.85,0,0,0-1.68.06,2.73,2.73,0,0,0-1.53.87,1.72,1.72,0,0,0-.27,1.55,2.05,2.05,0,0,0,.89,1.27,6.19,6.19,0,0,0,1.66.71l2,.53a7.52,7.52,0,0,1,1.87.74,4.72,4.72,0,0,1,1.28,1,3.67,3.67,0,0,1,.81,1.61,4.4,4.4,0,0,1-.07,2.58,4.17,4.17,0,0,1-1.42,1.91A6,6,0,0,1,1179.4,976.91Z" style="fill: #c2c2c2"/>
      <path d="M1191,974.1a5,5,0,0,1-2.54,0,4.8,4.8,0,0,1-2.2-1.31,5.37,5.37,0,0,1-1.33-2.55,5.9,5.9,0,0,1-.07-2.79,4.29,4.29,0,0,1,1.21-2.17,5,5,0,0,1,2.38-1.25,4.44,4.44,0,0,1,1.69-.09,4.83,4.83,0,0,1,1.39.44,2.55,2.55,0,0,1,.87.67l-.35-1.63,2.16-.52,2.36,9.65-2.15.53-.46-1.7a2.81,2.81,0,0,1-.48,1.08,4.4,4.4,0,0,1-1,1A4.11,4.11,0,0,1,1191,974.1Zm-.08-2a2.81,2.81,0,0,0,2.1-2,3.06,3.06,0,0,0,0-1.7l0-.14a3.5,3.5,0,0,0-.79-1.56,2.92,2.92,0,0,0-1.3-.84,2.76,2.76,0,0,0-1.51,0,2.59,2.59,0,0,0-1.9,1.42,4,4,0,0,0,1.09,4.48A2.59,2.59,0,0,0,1190.87,972.11Z" style="fill: #c2c2c2"/>
      <path d="M1199.27,971.85l-3.76-15.46,2.25-.55,3.76,15.46Z" style="fill: #c2c2c2"/>
      <path d="M1208.73,969.77a5,5,0,0,1-2.54,0,4.72,4.72,0,0,1-2.2-1.31,5.38,5.38,0,0,1-1.34-2.55,5.93,5.93,0,0,1-.06-2.8,4.31,4.31,0,0,1,1.21-2.16,5,5,0,0,1,2.38-1.25,4.63,4.63,0,0,1,1.65-.1,4.33,4.33,0,0,1,1.44.44,2.77,2.77,0,0,1,1,.83l-.5-1.62-1.45-6,2.23-.55,3.77,15.47-2.17.53-.46-1.7a2.75,2.75,0,0,1-.48,1.08,4.26,4.26,0,0,1-1,1A3.83,3.83,0,0,1,1208.73,969.77Zm-.09-2a2.93,2.93,0,0,0,1.33-.72,2.85,2.85,0,0,0,.78-1.29,3.22,3.22,0,0,0,0-1.69l0-.15a3.4,3.4,0,0,0-.79-1.56,2.87,2.87,0,0,0-1.3-.84,2.76,2.76,0,0,0-1.51,0,2.63,2.63,0,0,0-1.9,1.42,4,4,0,0,0,1.1,4.49A2.63,2.63,0,0,0,1208.64,967.77Z" style="fill: #c2c2c2"/>
      <path d="M1221.65,966.63a5.41,5.41,0,0,1-2.83,0,4.82,4.82,0,0,1-2.22-1.4,5.37,5.37,0,0,1-1.26-2.41,5.44,5.44,0,0,1,0-2.69,4.78,4.78,0,0,1,1.31-2.25,5.16,5.16,0,0,1,2.52-1.34,5.22,5.22,0,0,1,2.86,0,4.89,4.89,0,0,1,2.2,1.41,5.39,5.39,0,0,1,1.22,2.39,5.53,5.53,0,0,1,0,2.71,4.83,4.83,0,0,1-1.31,2.26A5.28,5.28,0,0,1,1221.65,966.63Zm-.39-1.87a2.34,2.34,0,0,0,1.72-1.4,3.8,3.8,0,0,0,.14-2.42,4.06,4.06,0,0,0-.74-1.55,2.89,2.89,0,0,0-1.24-.93,2.6,2.6,0,0,0-1.57-.09,2.38,2.38,0,0,0-1.3.79,3,3,0,0,0-.63,1.39,4,4,0,0,0,.07,1.71,3.56,3.56,0,0,0,.75,1.52,2.88,2.88,0,0,0,1.26.91A2.59,2.59,0,0,0,1221.26,964.76Z" style="fill: #c2c2c2"/>
      <path d="M1232.18,963.84l-7.44-8.42,2.58-.63,3.15,3.85,1.1,1.58.24-1.91,1-4.86,2.52-.61-2.72,10.89Z" style="fill: #c2c2c2"/>
      <path d="M1243.26,961.37a5.41,5.41,0,0,1-2.83,0,4.82,4.82,0,0,1-2.22-1.4,5.42,5.42,0,0,1-1.26-2.41,5.56,5.56,0,0,1,0-2.69,5,5,0,0,1,1.31-2.26,5.81,5.81,0,0,1,5.39-1.31,4.73,4.73,0,0,1,2.19,1.41,5.3,5.3,0,0,1,1.23,2.39,5.53,5.53,0,0,1,0,2.71,4.81,4.81,0,0,1-1.32,2.26A5.29,5.29,0,0,1,1243.26,961.37Zm-.39-1.87a2.36,2.36,0,0,0,1.72-1.4,3.87,3.87,0,0,0,.14-2.42,4.06,4.06,0,0,0-.74-1.55,2.89,2.89,0,0,0-1.24-.93,2.53,2.53,0,0,0-1.57-.09,2.38,2.38,0,0,0-1.3.79,3,3,0,0,0-.63,1.39,4,4,0,0,0,.07,1.71,3.62,3.62,0,0,0,.75,1.52,2.91,2.91,0,0,0,1.25.91A2.63,2.63,0,0,0,1242.87,959.5Z" style="fill: #c2c2c2"/>
      <path d="M1255.83,958.08l-2.35-9.66,2.23-.54.45,1.76a3.44,3.44,0,0,1,.88-1.74,4.34,4.34,0,0,1,4.4-1,3.28,3.28,0,0,1,1.49,1.56,13.83,13.83,0,0,1,.94,2.74l1.13,4.65-2.27.55-1.12-4.58a7.83,7.83,0,0,0-.95-2.49,1.45,1.45,0,0,0-1.72-.52,2.66,2.66,0,0,0-1.17.69,3.22,3.22,0,0,0-.83,1.36,3.47,3.47,0,0,0,0,1.87l1.17,4.8Z" style="fill: #c2c2c2"/>
      <path d="M1272,954.36a5,5,0,0,1-2.54,0,4.89,4.89,0,0,1-2.2-1.31,5.37,5.37,0,0,1-1.33-2.55,5.94,5.94,0,0,1-.07-2.8,4.31,4.31,0,0,1,1.21-2.16,5,5,0,0,1,2.38-1.25,4.25,4.25,0,0,1,1.69-.09,4.7,4.7,0,0,1,1.4.44,2.6,2.6,0,0,1,.86.67l-.35-1.63,2.17-.53,2.35,9.66-2.15.52-.46-1.69a2.71,2.71,0,0,1-.48,1.07,4.24,4.24,0,0,1-1,1A4.29,4.29,0,0,1,1272,954.36Zm-2.41-11.56-1.75-.49,2-5.6,2.31.79Zm2.33,9.57a2.83,2.83,0,0,0,2.11-2,3.22,3.22,0,0,0,0-1.69l0-.15a3.41,3.41,0,0,0-.79-1.55,3,3,0,0,0-1.3-.85,2.76,2.76,0,0,0-1.51,0,2.59,2.59,0,0,0-1.9,1.42,3.61,3.61,0,0,0-.16,2.4,3.69,3.69,0,0,0,1.25,2.08A2.59,2.59,0,0,0,1272,952.37Z" style="fill: #c2c2c2"/>
      <path d="M1280.3,952.12l-2.35-9.65,2.27-.56.43,1.75a3.2,3.2,0,0,1,1-1.85,4.26,4.26,0,0,1,1.9-1,4.21,4.21,0,0,1,2.29,0,2.49,2.49,0,0,1,1.32,1,3.43,3.43,0,0,1,1.07-1.65,4.34,4.34,0,0,1,1.84-1,4,4,0,0,1,2.49,0,3,3,0,0,1,1.43,1.48,13.13,13.13,0,0,1,.91,2.69l1.18,4.84-2.29.56-1.19-4.86a6.56,6.56,0,0,0-.91-2.32,1.34,1.34,0,0,0-1.54-.45,2.39,2.39,0,0,0-1.82,1.42,4.1,4.1,0,0,0-.09,2.47l1.17,4.8-2.27.55-1.27-5.19a12.71,12.71,0,0,0-.44-1.52,1.55,1.55,0,0,0-.68-.86,1.85,1.85,0,0,0-1.34,0,2.52,2.52,0,0,0-1.27.77,3.45,3.45,0,0,0-.74,1.42,3.38,3.38,0,0,0,0,1.73l1.16,4.8Z" style="fill: #c2c2c2"/>
      <path d="M1300.35,935.54l-4.87-3.63,1.09-1.47,3.17,2.55,1.65-3.72,1.62.81Zm3.08,11.18a5.74,5.74,0,0,1-3.11,0,4.33,4.33,0,0,1-2.12-1.46,6.17,6.17,0,0,1-1.13-2.33,5.58,5.58,0,0,1,0-2.87,4.47,4.47,0,0,1,1.35-2.19,5.35,5.35,0,0,1,2.41-1.25,4.23,4.23,0,0,1,3.66.46,5.35,5.35,0,0,1,1.88,3.16c.09.38.17.78.23,1.19l-6.95,1.7a2.63,2.63,0,0,0,3.41,1.73,6.24,6.24,0,0,0,1.74-.65,7.55,7.55,0,0,0,1-.68l1.09,1.45a6.46,6.46,0,0,1-1.17.88A8.23,8.23,0,0,1,1303.43,946.72Zm-4.17-5.16,4.8-1.17a2.3,2.3,0,0,0-1.07-1.72,2.62,2.62,0,0,0-1.77-.11,2.66,2.66,0,0,0-1.57,1A2.78,2.78,0,0,0,1299.26,941.56Z" style="fill: #c2c2c2"/>
      <path d="M1313.13,944.35a8.92,8.92,0,0,1-1.43.22,9.27,9.27,0,0,1-1.4,0,3.39,3.39,0,0,1-1-.2l.32-2a7.27,7.27,0,0,0,1.22.31,4.79,4.79,0,0,0,1.88-.12,2.2,2.2,0,0,0,1.21-.6.88.88,0,0,0,.18-.75.78.78,0,0,0-.44-.55,3.06,3.06,0,0,0-.91-.21l-1.35-.16a12,12,0,0,1-1.49-.36,3.41,3.41,0,0,1-1.26-.72,2.62,2.62,0,0,1-.74-1.33,2.45,2.45,0,0,1,.55-2.35,5,5,0,0,1,2.6-1.4,8.17,8.17,0,0,1,1.76-.23,3.69,3.69,0,0,1,1.37.18l-.38,2a2.42,2.42,0,0,0-1-.26,4,4,0,0,0-1.42.13c-1,.24-1.43.66-1.28,1.26a.88.88,0,0,0,.5.63,2.82,2.82,0,0,0,1,.23c.39,0,.81.08,1.27.15a6.1,6.1,0,0,1,2.25.69,2.4,2.4,0,0,1,1.12,1.59,2.64,2.64,0,0,1-.13,1.77,3.14,3.14,0,0,1-1.17,1.29A5.58,5.58,0,0,1,1313.13,944.35Z" style="fill: #c2c2c2"/>
      <path d="M1319.88,942.49l-1.9-7.81-1.71.42-.45-1.85,1.71-.42-1-3.93,2.17-1.07,1.08,4.44,2.23-.54.45,1.85-2.23.54,1.9,7.81Z" style="fill: #c2c2c2"/>
      <path d="M1324.75,929.38l-1.74-.49,2-5.6,2.31.79Zm1.59,11.54-2.35-9.66,2.35-.58,2.35,9.66Z" style="fill: #c2c2c2"/>
    </g>
    <g>
      <path d="M441.68,828.12h14a8,8,0,0,1,8,8v12.32a0,0,0,0,1,0,0h-22a0,0,0,0,1,0,0V828.12A0,0,0,0,1,441.68,828.12Z" style="fill: #fff;stroke: #000;stroke-miterlimit: 10"/>
      <path d="M447.28,835.48v2.22a.6.6,0,1,0-1.2,0v1.2a.6.6,0,0,0,1.2,0v2.93a1.9,1.9,0,0,0,.6,1.39v1.08a.6.6,0,0,0,.6.6h.6a.6.6,0,0,0,.6-.6v-.6h6v.6a.6.6,0,0,0,.6.6h.6a.6.6,0,0,0,.6-.6v-1.08a1.9,1.9,0,0,0,.6-1.39V838.9a.6.6,0,0,0,1.2,0v-1.2a.6.6,0,1,0-1.2,0v-2.22a4.05,4.05,0,0,0-.45-2,3,3,0,0,0-1.28-1.19,11.49,11.49,0,0,0-7.33,0,3,3,0,0,0-1.28,1.19A4.05,4.05,0,0,0,447.28,835.48Zm9,7a.64.64,0,0,0,.6-.67V839.5a.6.6,0,0,0-.6-.6h-7.19a.6.6,0,0,0-.6.6v2.33a.64.64,0,0,0,.6.67Zm0-7.2a.6.6,0,0,1,.6.6v1.9a1.93,1.93,0,0,0-.6-.1h-7.19a1.93,1.93,0,0,0-.6.1v-1.9a.6.6,0,0,1,.6-.6Zm.3-1.2,0,0a1.66,1.66,0,0,0-.32,0h-7.19a1.66,1.66,0,0,0-.32,0l0,0a1.73,1.73,0,0,1,.78-.73,10.56,10.56,0,0,1,6.23,0A1.73,1.73,0,0,1,456.57,834.1Zm-7.49,6.3a.9.9,0,1,1,.9.9A.9.9,0,0,1,449.08,840.4Zm6.29-.9a.9.9,0,1,0,.9.9A.9.9,0,0,0,455.37,839.5Z" style="fill-rule: evenodd"/>
    </g>
    <g>
      <path d="M860.52,897.05h14a8,8,0,0,1,8,8v12.32a0,0,0,0,1,0,0h-22a0,0,0,0,1,0,0V897.05A0,0,0,0,1,860.52,897.05Z" style="fill: #fff;stroke: #000;stroke-miterlimit: 10"/>
      <path d="M866.12,904.41v2.23a.6.6,0,1,0-1.2,0v1.19a.6.6,0,0,0,1.2,0v2.93a1.92,1.92,0,0,0,.6,1.4v1.07a.6.6,0,0,0,.6.6h.6a.6.6,0,0,0,.6-.6v-.6h6v.6a.6.6,0,0,0,.6.6h.6a.6.6,0,0,0,.6-.6v-1.07a1.92,1.92,0,0,0,.59-1.4v-2.93a.6.6,0,0,0,.6.6.59.59,0,0,0,.6-.6v-1.19a.59.59,0,0,0-.6-.6.6.6,0,0,0-.6.6v-2.23a3.91,3.91,0,0,0-.45-2,3,3,0,0,0-1.28-1.2,11.49,11.49,0,0,0-7.33,0,2.94,2.94,0,0,0-1.27,1.2A3.91,3.91,0,0,0,866.12,904.41Zm9,7a.64.64,0,0,0,.6-.67v-2.33a.6.6,0,0,0-.6-.6h-7.2a.6.6,0,0,0-.6.6v2.33a.63.63,0,0,0,.6.67Zm0-7.19a.6.6,0,0,1,.6.6v1.9a1.72,1.72,0,0,0-.6-.1h-7.2a1.72,1.72,0,0,0-.6.1v-1.9a.6.6,0,0,1,.6-.6Zm.3-1.21,0,0a1.73,1.73,0,0,0-.32,0h-7.2a1.66,1.66,0,0,0-.32,0l0,0a1.76,1.76,0,0,1,.78-.72,10.59,10.59,0,0,1,6.24,0A1.82,1.82,0,0,1,875.42,903Zm-7.5,6.3a.9.9,0,1,1,.9.9A.9.9,0,0,1,867.92,909.33Zm6.3-.9a.9.9,0,1,0,.9.9A.9.9,0,0,0,874.22,908.43Z" style="fill-rule: evenodd"/>
    </g>
  </g>
  <g id="Budovy">
    <polygon points="154.19 698.41 239.05 675.28 255.87 676.8 321.44 653.77 329.35 516.12 247.75 506.36 262.26 299.22 176.38 305.46 154.19 698.41" style="fill: #f6f6f6"/>
    <polygon points="172.9 258.66 267.48 261.56 267.48 190.18 394.56 196.57 387.6 273.74 518.74 281.29 526.28 171.62 659.37 173.94 659.37 226.45 708.28 219.2 711.81 242.99 761.2 252.42 755.49 290.53 786.65 335.29 878.51 238.35 782.18 116.49 679.67 94.44 196.11 72.39 172.9 258.66" style="fill: #f6f6f6"/>
    <polygon points="1333.44 840.67 1248.72 730.83 962.07 244.15 962.07 224.42 979.47 214.56 996.58 217.46 1003.26 212.23 1472.12 421.17 1479.09 598.07 1333.44 840.67" style="fill: #f6f6f6"/>
  </g>
  <g id="Pudorys">
    <path d="M793.77,822.3H381.21a3,3,0,0,1-2.1-.87h0l-1-1a3,3,0,0,1-.87-2.1v-2a2,2,0,0,0-2-2h-70.6a2.94,2.94,0,0,1-2.1-.87l-1-1a3,3,0,0,1-.87-2.1V772.15a2,2,0,0,0-2-2H280.78a3,3,0,0,1-2.1-.87l-1-1a3,3,0,0,1-.87-2.1V684.4a3,3,0,0,1,.64-1.83l.83-1.06a2.94,2.94,0,0,1,1.63-1L368.39,659a2,2,0,0,0,1.5-1.85L382.27,314.2a3,3,0,0,1,.86-2l1-1a2.91,2.91,0,0,1,2-.87l347.05-16.62a3.11,3.11,0,0,1,1.21.2l.89.34a3,3,0,0,1,1,.67L777,335.52a3,3,0,0,1,.87,2.1v1.45a3,3,0,0,1-.87,2.1L764.87,353.3a2,2,0,0,0,0,2.78l26,26.07a2,2,0,0,0,2.77,0l5.56-5.41a3,3,0,0,1,2.46-.82l1.47.2a2.94,2.94,0,0,1,2.16,1.42l194.6,328.33a2,2,0,0,0,1.69,1l71.11.14a3,3,0,0,1,2.1.88l1,1a2.93,2.93,0,0,1,.86,2.09l.06,98.49a3,3,0,0,1-.87,2.1l-1,1a2.94,2.94,0,0,1-2.09.87H840.84a2.94,2.94,0,0,1-2.1-.87l-1-1a2.93,2.93,0,0,1-.86-2.1v-3a2,2,0,0,0-2-2H799.73a2,2,0,0,0-2,2v11.78a3,3,0,0,1-.87,2.1l-1,1A3,3,0,0,1,793.77,822.3Zm-413.95-1.58a1.91,1.91,0,0,0,1.39.58H793.77a2,2,0,0,0,1.39-.58l1-1a2,2,0,0,0,.57-1.39V806.53a3,3,0,0,1,3-3h35.15a3,3,0,0,1,3,3v3a2,2,0,0,0,.57,1.4l1,1a2,2,0,0,0,1.4.57h231.92a2,2,0,0,0,1.39-.57l1-1a2,2,0,0,0,.58-1.39l-.06-98.49a2,2,0,0,0-.57-1.39l-1-1a2,2,0,0,0-1.39-.58l-71.12-.14a3,3,0,0,1-2.54-1.46L804.46,378.07a2,2,0,0,0-1.44-.94l-1.47-.2a2,2,0,0,0-1.63.54l-5.56,5.42a3,3,0,0,1-4.17,0l-26-26.07a3,3,0,0,1,0-4.19l12.14-12.14a2,2,0,0,0,.57-1.39v-1.45a1.91,1.91,0,0,0-.58-1.39l-40.73-40.59a2,2,0,0,0-.68-.45l-.89-.34a2,2,0,0,0-.8-.13L386.14,311.34a1.93,1.93,0,0,0-1.3.58l-1,1a2,2,0,0,0-.57,1.32L370.89,657.18a3,3,0,0,1-2.27,2.78l-88.5,21.47a2.06,2.06,0,0,0-1.08.7l-.83,1.06a2,2,0,0,0-.42,1.21v81.79a2,2,0,0,0,.58,1.39l1,1a2,2,0,0,0,1.39.58h17.91a3,3,0,0,1,3,3v38.17a2,2,0,0,0,.57,1.39l1,1a2,2,0,0,0,1.39.58h70.6a3,3,0,0,1,3,3v2a2,2,0,0,0,.57,1.39Z" style="fill: #9b9b9a"/>
    <rect x="1001.09" y="707.36" width="1" height="105.62" style="fill: #9b9b9a"/>
  </g>
</svg>
